<?xml version="1.0" encoding="utf-8"?>
<!-- Generator: Adobe Illustrator 27.5.0, SVG Export Plug-In . SVG Version: 6.00 Build 0)  -->
<svg version="1.1" id="Layer_1" xmlns="http://www.w3.org/2000/svg" xmlns:xlink="http://www.w3.org/1999/xlink" x="0px" y="0px"
	 viewBox="0 0 675 414" style="enable-background:new 0 0 675 414;" xml:space="preserve">
<style type="text/css">
	.st0{fill:#F3F5F7;fill-opacity:0.2;}
	.st1{fill:#FFFFFF;}
	.st2{fill:#F3F5F7;}
	.st3{fill:none;stroke:#F3F5F7;}
	.st4{opacity:0.3;fill:#F3F5F7;enable-background:new    ;}
	.st5{fill:url(#SVGID_1_);}
	.st6{fill:none;stroke:#EDFFFE;stroke-miterlimit:10;}
</style>
<g id="Layer_2_00000097490249387335546280000013829438654707722684_">
</g>
<g id="Layer_1_00000029027313772563737330000013615284691621199793_">
	<g>
		<path class="st0" d="M7.7,23.5c0-8.3,6.7-15,15-15h511c8.3,0,15,6.7,15,15v78.4H291.2c-5.7,0-10.6,4.7-10.6,10.4V325H22
			c-8.3,0-15-6.7-15-15L7.7,23.5z"/>
		<path class="st1" d="M37.8,48.2c-0.9,0-1.6-0.3-2.1-0.8C35.2,46.8,35,46,35,45v-4.4h1.6v4.2c0,0.6,0.1,1.1,0.4,1.4
			c0.3,0.3,0.7,0.5,1.2,0.5s1-0.2,1.4-0.6c0.4-0.4,0.6-0.9,0.6-1.6v-4h1.6V48h-1.4l-0.1-1.1h-0.1c-0.2,0.4-0.5,0.7-0.9,0.9
			C38.9,48.1,38.4,48.2,37.8,48.2z M47.6,48.2c-1,0-1.8-0.2-2.3-0.7c-0.6-0.5-0.9-1.1-1-1.8h1.6c0.1,0.3,0.2,0.6,0.5,0.9
			c0.3,0.2,0.7,0.3,1.2,0.3s0.8-0.1,1.1-0.3s0.4-0.4,0.4-0.7c0-0.4-0.2-0.6-0.5-0.8c-0.3-0.1-0.7-0.2-1.3-0.3
			c-0.5-0.1-1-0.2-1.4-0.3c-0.4-0.2-0.7-0.4-1-0.7c-0.2-0.3-0.4-0.7-0.4-1.2c0-0.7,0.3-1.2,0.8-1.6c0.5-0.4,1.2-0.6,2.1-0.6
			s1.6,0.2,2.1,0.6s0.8,1,0.9,1.7h-1.5c0-0.3-0.2-0.5-0.5-0.7s-0.6-0.3-1-0.3s-0.7,0.1-1,0.2c-0.2,0.2-0.4,0.4-0.4,0.6
			c0,0.5,0.6,0.9,1.7,1c0.5,0.1,1,0.2,1.5,0.3c0.4,0.1,0.8,0.4,1,0.7s0.4,0.7,0.4,1.3c0,0.5-0.1,0.9-0.4,1.2
			c-0.3,0.4-0.6,0.6-1.1,0.9C48.7,48.1,48.2,48.2,47.6,48.2z M56.6,48.2c-0.7,0-1.4-0.2-1.9-0.5c-0.6-0.3-1-0.8-1.3-1.4
			c-0.3-0.6-0.5-1.3-0.5-2c0-0.8,0.1-1.5,0.5-2.1c0.3-0.6,0.7-1,1.3-1.4c0.6-0.3,1.2-0.5,1.9-0.5s1.3,0.2,1.9,0.5
			c0.5,0.3,0.9,0.8,1.2,1.3s0.4,1.1,0.4,1.8c0,0.1,0,0.2,0,0.3s0,0.2,0,0.4h-5.6c0.1,0.7,0.3,1.2,0.7,1.6c0.4,0.4,0.9,0.5,1.4,0.5
			s0.8-0.1,1.1-0.3s0.5-0.5,0.6-0.8h1.6c-0.2,0.7-0.6,1.3-1.1,1.8C58.2,47.9,57.5,48.2,56.6,48.2z M56.6,41.8
			c-0.5,0-0.9,0.2-1.3,0.5c-0.4,0.3-0.6,0.7-0.7,1.2h4c0-0.5-0.2-0.9-0.6-1.2C57.6,41.9,57.1,41.8,56.6,41.8z M62.1,48v-1.4H64v-4.2
			c0-0.3-0.2-0.5-0.5-0.5h-1.2v-1.4h1.8c0.4,0,0.7,0.1,1,0.4c0.3,0.2,0.4,0.6,0.4,1v0.2h0.1c0.1-0.6,0.3-1,0.7-1.3
			c0.4-0.3,0.9-0.4,1.6-0.4H69v1.7h-1.6c-0.6,0-1,0.2-1.4,0.6s-0.5,0.9-0.5,1.5v2.5h2.3V48H62.1z M71,49.4V48h7v1.4H71z M83.3,39.4
			c-0.3,0-0.6-0.1-0.9-0.3c-0.2-0.2-0.3-0.5-0.3-0.8s0.1-0.6,0.3-0.8c0.2-0.2,0.5-0.3,0.9-0.3s0.7,0.1,0.9,0.3
			c0.2,0.2,0.4,0.5,0.4,0.8s-0.1,0.6-0.4,0.8C84,39.3,83.7,39.4,83.3,39.4z M80.3,48v-1.4h2.3v-4.2c0-0.3-0.2-0.5-0.5-0.5h-1.7v-1.4
			h1.9c0.6,0,1.1,0.1,1.4,0.4c0.3,0.3,0.4,0.7,0.4,1.4v4.3h2.3V48H80.3z M92.1,48.2c-0.6,0-1.2-0.1-1.7-0.4
			c-0.5-0.3-0.9-0.7-1.2-1.3c-0.3-0.6-0.4-1.3-0.4-2.1s0.1-1.6,0.4-2.1c0.3-0.6,0.7-1,1.2-1.3s1.1-0.5,1.7-0.5s1,0.1,1.4,0.3
			s0.6,0.5,0.8,0.8v-4.3h1.6V48h-1.4l-0.1-1.1h-0.1c-0.2,0.4-0.5,0.7-0.9,0.9C93.1,48.1,92.6,48.2,92.1,48.2z M92.4,46.7
			c0.6,0,1-0.2,1.4-0.6c0.4-0.4,0.6-1,0.6-1.8s-0.2-1.4-0.6-1.8c-0.4-0.4-0.8-0.6-1.4-0.6s-1,0.2-1.4,0.6c-0.4,0.4-0.6,1-0.6,1.8
			s0.2,1.4,0.6,1.8C91.3,46.5,91.8,46.7,92.4,46.7z"/>
		<path class="st1" d="M240.2,48v-1.4h1.8v-4.2c0-0.3-0.2-0.5-0.5-0.5h-1.2v-1.4h1.8c0.4,0,0.7,0.1,1,0.4c0.3,0.2,0.4,0.6,0.4,1v0.2
			h0.1c0.1-0.6,0.3-1,0.7-1.3s0.9-0.4,1.6-0.4h1.2v1.7h-1.6c-0.6,0-1,0.2-1.4,0.6c-0.3,0.4-0.5,0.9-0.5,1.5v2.5h2.3V48H240.2z
			 M252.6,48.2c-0.7,0-1.4-0.2-1.9-0.5c-0.6-0.3-1-0.8-1.3-1.4c-0.3-0.6-0.5-1.3-0.5-2c0-0.8,0.2-1.5,0.4-2.1c0.3-0.6,0.7-1,1.3-1.4
			c0.6-0.3,1.2-0.5,1.9-0.5s1.3,0.2,1.9,0.5c0.5,0.3,0.9,0.8,1.2,1.3s0.4,1.1,0.4,1.8c0,0.1,0,0.2,0,0.3s0,0.2,0,0.4h-5.6
			c0.1,0.7,0.3,1.2,0.7,1.6c0.4,0.4,0.9,0.5,1.4,0.5s0.8-0.1,1.1-0.3s0.5-0.5,0.6-0.8h1.6c-0.2,0.7-0.6,1.3-1.1,1.8
			C254.2,47.9,253.5,48.2,252.6,48.2z M252.6,41.8c-0.5,0-0.9,0.2-1.3,0.5c-0.4,0.3-0.6,0.7-0.7,1.2h4c0-0.5-0.2-0.9-0.6-1.2
			C253.6,41.9,253.1,41.8,252.6,41.8z M260.5,48l-3.2-7.4h1.8l2.4,5.8l2.4-5.8h1.8l-3.2,7.4H260.5z M270.3,39.4
			c-0.4,0-0.6-0.1-0.9-0.3c-0.2-0.2-0.3-0.5-0.3-0.8s0.1-0.6,0.3-0.8c0.2-0.2,0.5-0.3,0.9-0.3s0.7,0.1,0.9,0.3
			c0.2,0.2,0.4,0.5,0.4,0.8s-0.1,0.6-0.4,0.8C271,39.3,270.7,39.4,270.3,39.4z M267.3,48v-1.4h2.3v-4.2c0-0.3-0.2-0.5-0.5-0.5h-1.6
			v-1.4h1.9c0.6,0,1.1,0.1,1.4,0.4c0.3,0.3,0.4,0.7,0.4,1.4v4.3h2.3V48H267.3z M279.6,48.2c-0.7,0-1.4-0.2-1.9-0.5s-1-0.8-1.3-1.4
			c-0.3-0.6-0.5-1.3-0.5-2c0-0.8,0.1-1.5,0.4-2.1s0.7-1,1.3-1.4c0.6-0.3,1.2-0.5,1.9-0.5c0.7,0,1.3,0.2,1.9,0.5
			c0.5,0.3,0.9,0.8,1.2,1.3c0.3,0.5,0.4,1.1,0.4,1.8c0,0.1,0,0.2,0,0.3s0,0.2,0,0.4h-5.6c0,0.7,0.3,1.2,0.7,1.6
			c0.4,0.4,0.9,0.5,1.4,0.5s0.8-0.1,1.1-0.3c0.3-0.2,0.5-0.5,0.6-0.8h1.6c-0.2,0.7-0.6,1.3-1.1,1.8
			C281.2,47.9,280.5,48.2,279.6,48.2z M279.6,41.8c-0.5,0-0.9,0.2-1.3,0.5s-0.6,0.7-0.7,1.2h4c0-0.5-0.2-0.9-0.6-1.2
			C280.6,41.9,280.1,41.8,279.6,41.8z M285.7,48l-1.6-7.4h1.6l0.9,5.2l1.1-5.2h1.7l1.1,5.2l0.9-5.2h1.6l-1.6,7.4h-1.6l-1.1-5.4
			l-1.1,5.4H285.7z M297.5,48.2c-1,0-1.8-0.2-2.3-0.7c-0.6-0.5-0.9-1.1-1-1.8h1.6c0.1,0.3,0.2,0.6,0.5,0.9c0.3,0.2,0.7,0.3,1.2,0.3
			s0.8-0.1,1.1-0.3c0.3-0.2,0.4-0.4,0.4-0.7c0-0.4-0.2-0.6-0.5-0.8c-0.3-0.1-0.7-0.2-1.3-0.3c-0.5-0.1-1-0.2-1.4-0.3
			c-0.4-0.2-0.7-0.4-1-0.7c-0.2-0.3-0.4-0.7-0.4-1.2c0-0.7,0.3-1.2,0.8-1.6c0.5-0.4,1.2-0.6,2.1-0.6s1.6,0.2,2.1,0.6s0.8,1,0.9,1.7
			h-1.5c0-0.3-0.2-0.5-0.5-0.7s-0.6-0.3-1-0.3s-0.7,0.1-1,0.2c-0.2,0.2-0.4,0.4-0.4,0.6c0,0.5,0.6,0.9,1.7,1c0.5,0.1,1,0.2,1.5,0.3
			c0.4,0.1,0.8,0.4,1,0.7s0.4,0.7,0.4,1.3c0,0.5-0.1,0.9-0.4,1.2c-0.3,0.4-0.6,0.6-1.1,0.9C298.7,48.1,298.1,48.2,297.5,48.2z"/>
		<path class="st1" d="M344.8,48.2c-0.6,0-1.1-0.1-1.5-0.3s-0.7-0.5-0.9-0.8c-0.2-0.3-0.3-0.7-0.3-1.1c0-0.7,0.3-1.3,0.8-1.7
			s1.3-0.6,2.3-0.6h1.9v-0.2c0-1.1-0.5-1.7-1.6-1.7c-0.4,0-0.8,0.1-1.1,0.3c-0.3,0.2-0.5,0.5-0.6,0.9h-1.6c0.1-0.8,0.4-1.4,1-1.8
			c0.6-0.5,1.4-0.7,2.3-0.7c1.1,0,1.9,0.3,2.4,0.8s0.8,1.3,0.8,2.2V48h-1.4l-0.1-1.1h-0.1c-0.2,0.4-0.5,0.7-0.8,0.9
			C346,48.1,345.5,48.2,344.8,48.2z M345.1,46.8c0.6,0,1.1-0.2,1.5-0.6c0.3-0.4,0.5-0.9,0.5-1.5h-1.7c-0.6,0-1,0.1-1.2,0.3
			s-0.3,0.4-0.3,0.8c0,0.3,0.1,0.6,0.3,0.8C344.4,46.8,344.7,46.8,345.1,46.8z M353.5,48l-3.2-7.4h1.8l2.4,5.8l2.4-5.8h1.8l-3.2,7.4
			H353.5z M363.3,45.9c-0.5,0-0.9-0.1-1.3-0.2l-0.4,0.5c-0.1,0.1-0.2,0.3-0.1,0.4c0.1,0.1,0.2,0.2,0.4,0.2h2c0.9,0,1.6,0.2,2.1,0.6
			c0.5,0.4,0.8,0.9,0.8,1.7c0,0.5-0.1,0.9-0.4,1.3c-0.2,0.4-0.6,0.7-1.1,0.9s-1.2,0.3-2,0.3c-1.1,0-1.9-0.2-2.6-0.6
			c-0.6-0.4-1-1-1-1.8c0-0.3,0.1-0.5,0.2-0.8c0.1-0.2,0.3-0.4,0.5-0.6c-0.3-0.2-0.4-0.5-0.5-0.8c-0.1-0.4,0.1-0.7,0.3-1.1L361,45
			c-0.5-0.5-0.7-1.1-0.7-1.8c0-0.5,0.1-0.9,0.3-1.4c0.2-0.4,0.6-0.8,1-1c0.5-0.2,1-0.4,1.6-0.4c0.4,0,0.8,0.1,1.1,0.2h2.8v1
			l-1.3,0.1v0.1c0.2,0.4,0.3,0.8,0.3,1.3s-0.1,0.9-0.4,1.4c-0.2,0.4-0.6,0.8-1,1S363.9,45.9,363.3,45.9z M363.3,44.6
			c0.4,0,0.8-0.1,1.1-0.4c0.3-0.3,0.4-0.6,0.4-1.1c0-0.4-0.1-0.8-0.4-1c-0.3-0.3-0.6-0.4-1.1-0.4s-0.8,0.1-1.1,0.4
			c-0.3,0.3-0.4,0.6-0.4,1c0,0.5,0.1,0.8,0.4,1.1C362.5,44.5,362.9,44.6,363.3,44.6z M361.3,49c0,0.4,0.2,0.7,0.6,0.9
			s0.9,0.3,1.5,0.3s1.1-0.1,1.5-0.3s0.5-0.5,0.5-0.9c0-0.3-0.1-0.6-0.4-0.8s-0.7-0.3-1.3-0.3h-1.8C361.5,48.2,361.3,48.6,361.3,49z
			 M369,49.4V48h7v1.4H369z M378.1,48v-1.4h1.8v-4.2c0-0.3-0.2-0.5-0.5-0.5h-1.2v-1.4h1.8c0.4,0,0.7,0.1,1,0.4
			c0.3,0.2,0.4,0.6,0.4,1v0.2h0.1c0.1-0.6,0.3-1,0.7-1.3c0.4-0.3,0.9-0.4,1.6-0.4h1.2v1.7h-1.6c-0.6,0-1,0.2-1.4,0.6
			s-0.5,0.9-0.5,1.5v2.5h2.3V48H378.1z M389.8,48.2c-0.6,0-1.1-0.1-1.5-0.3s-0.7-0.5-0.9-0.8c-0.2-0.3-0.3-0.7-0.3-1.1
			c0-0.7,0.3-1.3,0.8-1.7s1.3-0.6,2.3-0.6h1.9v-0.2c0-1.1-0.5-1.7-1.6-1.7c-0.4,0-0.8,0.1-1.1,0.3c-0.3,0.2-0.5,0.5-0.6,0.9h-1.6
			c0.1-0.8,0.4-1.4,1-1.8c0.6-0.5,1.4-0.7,2.3-0.7c1.1,0,1.9,0.3,2.4,0.8s0.8,1.3,0.8,2.2V48h-1.4l-0.1-1.1h-0.1
			c-0.2,0.4-0.5,0.7-0.8,0.9C391,48.1,390.5,48.2,389.8,48.2z M390.1,46.8c0.6,0,1.1-0.2,1.5-0.6c0.3-0.4,0.5-0.9,0.5-1.5h-1.7
			c-0.6,0-1,0.1-1.2,0.3s-0.3,0.4-0.3,0.8c0,0.3,0.1,0.6,0.3,0.8C389.4,46.8,389.7,46.8,390.1,46.8z M400.3,48
			c-0.7,0-1.3-0.2-1.7-0.5c-0.4-0.4-0.6-1-0.6-1.9v-3.7h-2v-1.3h1.1c0.5,0,0.8-0.2,0.9-0.8l0.2-1.2h1.2v2h2.9v1.3h-2.9v3.6
			c0,0.4,0.1,0.7,0.3,0.8c0.2,0.1,0.5,0.2,0.9,0.2h1.7V48H400.3z M408.3,39.4c-0.3,0-0.6-0.1-0.9-0.3c-0.2-0.2-0.3-0.5-0.3-0.8
			s0.1-0.6,0.3-0.8c0.2-0.2,0.5-0.3,0.9-0.3s0.7,0.1,0.9,0.3c0.2,0.2,0.4,0.5,0.4,0.8s-0.1,0.6-0.4,0.8
			C409,39.3,408.7,39.4,408.3,39.4z M405.3,48v-1.4h2.3v-4.2c0-0.3-0.2-0.5-0.5-0.5h-1.6v-1.4h1.9c0.6,0,1.1,0.1,1.4,0.4
			c0.3,0.3,0.4,0.7,0.4,1.4v4.3h2.3V48H405.3z M414.1,48v-7.4h1.4l0.1,1.1h0.1c0.2-0.4,0.5-0.7,0.9-0.9s0.9-0.4,1.5-0.4
			c0.9,0,1.6,0.3,2.1,0.8s0.7,1.4,0.7,2.4V48h-1.6v-4.2c0-0.6-0.1-1.1-0.4-1.4c-0.3-0.3-0.7-0.5-1.2-0.5s-1,0.2-1.4,0.6
			c-0.4,0.4-0.5,0.9-0.5,1.6v4L414.1,48L414.1,48z M426.3,45.9c-0.5,0-0.9-0.1-1.3-0.2l-0.4,0.5c-0.1,0.1-0.2,0.3-0.1,0.4
			c0.1,0.1,0.2,0.2,0.4,0.2h2c0.9,0,1.6,0.2,2.1,0.6c0.5,0.4,0.8,0.9,0.8,1.7c0,0.5-0.1,0.9-0.4,1.3c-0.2,0.4-0.6,0.7-1.1,0.9
			s-1.2,0.3-2,0.3c-1.1,0-1.9-0.2-2.6-0.6c-0.6-0.4-1-1-1-1.8c0-0.3,0.1-0.5,0.2-0.8c0.1-0.2,0.3-0.4,0.5-0.6
			c-0.3-0.2-0.4-0.5-0.5-0.8c0-0.4,0.1-0.7,0.3-1.1L424,45c-0.5-0.5-0.7-1.1-0.7-1.8c0-0.5,0.1-0.9,0.3-1.4c0.2-0.4,0.6-0.8,1-1
			c0.5-0.2,1-0.4,1.6-0.4c0.4,0,0.8,0.1,1.1,0.2h2.8v1l-1.3,0.1v0.1c0.2,0.4,0.3,0.8,0.3,1.3s-0.1,0.9-0.4,1.4c-0.2,0.4-0.6,0.8-1,1
			S426.9,45.9,426.3,45.9z M426.3,44.6c0.4,0,0.8-0.1,1.1-0.4c0.3-0.3,0.4-0.6,0.4-1.1c0-0.4-0.1-0.8-0.4-1
			c-0.3-0.3-0.6-0.4-1.1-0.4s-0.8,0.1-1.1,0.4c-0.3,0.3-0.4,0.6-0.4,1c0,0.5,0.1,0.8,0.4,1.1C425.5,44.5,425.8,44.6,426.3,44.6z
			 M424.3,49c0,0.4,0.2,0.7,0.6,0.9s0.9,0.3,1.5,0.3s1.1-0.1,1.5-0.3s0.5-0.5,0.5-0.9c0-0.3-0.1-0.6-0.4-0.8s-0.7-0.3-1.3-0.3h-1.8
			C424.5,48.2,424.3,48.6,424.3,49z"/>
		<path class="st1" d="M474.6,48.2c-1,0-1.8-0.2-2.3-0.7c-0.6-0.5-0.9-1.1-1-1.8h1.6c0.1,0.3,0.2,0.6,0.5,0.9
			c0.3,0.2,0.7,0.3,1.2,0.3s0.8-0.1,1.1-0.3c0.3-0.2,0.4-0.4,0.4-0.7c0-0.4-0.2-0.6-0.5-0.8c-0.3-0.1-0.7-0.2-1.3-0.3
			c-0.5-0.1-1-0.2-1.4-0.3c-0.4-0.2-0.7-0.4-1-0.7c-0.2-0.3-0.4-0.7-0.4-1.2c0-0.7,0.3-1.2,0.8-1.6c0.5-0.4,1.2-0.6,2.1-0.6
			s1.6,0.2,2.1,0.6s0.8,1,0.9,1.7h-1.5c0-0.3-0.2-0.5-0.5-0.7s-0.6-0.3-1-0.3s-0.7,0.1-1,0.2c-0.2,0.2-0.4,0.4-0.4,0.6
			c0,0.5,0.6,0.9,1.7,1c0.6,0.1,1,0.2,1.5,0.3c0.4,0.1,0.8,0.4,1,0.7s0.4,0.7,0.4,1.3c0,0.5-0.1,0.9-0.4,1.2
			c-0.3,0.4-0.6,0.6-1.1,0.9C475.7,48.1,475.2,48.2,474.6,48.2z M480.1,48V37.2h1.6v4.5c0.2-0.4,0.5-0.7,1-0.9
			c0.4-0.2,0.9-0.4,1.5-0.4c0.9,0,1.6,0.3,2.1,0.8s0.7,1.3,0.7,2.4V48h-1.6v-4.2c0-0.6-0.1-1.1-0.5-1.4c-0.3-0.3-0.7-0.5-1.2-0.5
			s-1,0.2-1.4,0.6c-0.4,0.4-0.6,0.9-0.6,1.6v4L480.1,48L480.1,48z M491.8,48.2c-0.6,0-1.1-0.1-1.5-0.3s-0.7-0.5-0.9-0.8
			c-0.2-0.3-0.3-0.7-0.3-1.1c0-0.7,0.3-1.3,0.8-1.7s1.3-0.6,2.3-0.6h1.9v-0.2c0-1.1-0.5-1.7-1.6-1.7c-0.4,0-0.8,0.1-1.1,0.3
			c-0.3,0.2-0.5,0.5-0.6,0.9h-1.6c0.1-0.8,0.4-1.4,1-1.8c0.6-0.5,1.4-0.7,2.3-0.7c1.1,0,1.9,0.3,2.4,0.8s0.8,1.3,0.8,2.2V48h-1.4
			l-0.1-1.1h-0.1c-0.2,0.4-0.5,0.7-0.8,0.9C493,48.1,492.5,48.2,491.8,48.2z M492.1,46.8c0.6,0,1.1-0.2,1.5-0.6
			c0.3-0.4,0.5-0.9,0.5-1.5h-1.7c-0.6,0-1,0.1-1.2,0.3s-0.3,0.4-0.3,0.8c0,0.3,0.1,0.6,0.3,0.8C491.4,46.8,491.7,46.8,492.1,46.8z
			 M498.1,48v-1.4h1.8v-4.2c0-0.3-0.2-0.5-0.5-0.5h-1.2v-1.4h1.8c0.4,0,0.7,0.1,1,0.4c0.3,0.2,0.4,0.6,0.4,1v0.2h0.1
			c0.1-0.6,0.3-1,0.7-1.3c0.4-0.3,0.9-0.4,1.6-0.4h1.2v1.7h-1.6c-0.6,0-1,0.2-1.4,0.6s-0.5,0.9-0.5,1.5v2.5h2.3V48H498.1z
			 M510.6,48.2c-0.7,0-1.4-0.2-1.9-0.5s-1-0.8-1.3-1.4c-0.3-0.6-0.5-1.3-0.5-2c0-0.8,0.1-1.5,0.4-2.1s0.7-1,1.3-1.4
			c0.6-0.3,1.2-0.5,1.9-0.5c0.7,0,1.3,0.2,1.9,0.5c0.5,0.3,0.9,0.8,1.2,1.3s0.4,1.1,0.4,1.8c0,0.1,0,0.2,0,0.3s0,0.2,0,0.4h-5.6
			c0,0.7,0.3,1.2,0.7,1.6c0.4,0.4,0.9,0.5,1.4,0.5s0.8-0.1,1.1-0.3c0.3-0.2,0.5-0.5,0.6-0.8h1.6c-0.2,0.7-0.6,1.3-1.1,1.8
			C512.2,47.9,511.5,48.2,510.6,48.2z M510.6,41.8c-0.5,0-0.9,0.2-1.3,0.5s-0.6,0.7-0.7,1.2h4c0-0.5-0.2-0.9-0.6-1.2
			C511.6,41.9,511.1,41.8,510.6,41.8z M519.5,48.2c-1,0-1.8-0.2-2.3-0.7c-0.6-0.5-0.9-1.1-1-1.8h1.6c0.1,0.3,0.2,0.6,0.5,0.9
			c0.3,0.2,0.7,0.3,1.2,0.3s0.8-0.1,1.1-0.3s0.4-0.4,0.4-0.7c0-0.4-0.2-0.6-0.5-0.8c-0.3-0.1-0.7-0.2-1.3-0.3
			c-0.5-0.1-1-0.2-1.4-0.3c-0.4-0.2-0.7-0.4-1-0.7c-0.2-0.3-0.4-0.7-0.4-1.2c0-0.7,0.3-1.2,0.8-1.6c0.5-0.4,1.2-0.6,2.1-0.6
			c0.9,0,1.6,0.2,2.1,0.6s0.8,1,0.9,1.7h-1.5c0-0.3-0.2-0.5-0.5-0.7s-0.6-0.3-1-0.3s-0.7,0.1-1,0.2c-0.2,0.2-0.4,0.4-0.4,0.6
			c0,0.5,0.6,0.9,1.7,1c0.5,0.1,1,0.2,1.5,0.3c0.4,0.1,0.8,0.4,1,0.7s0.4,0.7,0.4,1.3c0,0.5-0.1,0.9-0.4,1.2
			c-0.3,0.4-0.6,0.6-1.1,0.9C520.7,48.1,520.2,48.2,519.5,48.2z"/>
		<path class="st1" d="M137,51.3V40.6h1.4l0.1,1.1h0.1c0.2-0.4,0.5-0.7,0.9-0.9c0.4-0.3,0.9-0.4,1.5-0.4s1.1,0.1,1.6,0.5
			c0.5,0.3,0.9,0.7,1.1,1.3c0.3,0.6,0.4,1.3,0.4,2.1c0,0.9-0.2,1.6-0.4,2.1c-0.3,0.6-0.7,1-1.2,1.3s-1.1,0.4-1.7,0.4
			c-0.6,0-1-0.1-1.4-0.3s-0.6-0.5-0.8-0.8v4.2H137V51.3z M140.6,46.7c0.6,0,1-0.2,1.4-0.6c0.4-0.4,0.6-1,0.6-1.8s-0.2-1.4-0.6-1.8
			c-0.4-0.4-0.8-0.6-1.4-0.6c-0.6,0-1,0.2-1.4,0.6c-0.4,0.4-0.6,1-0.6,1.8s0.2,1.4,0.6,1.8C139.5,46.5,140,46.7,140.6,46.7z
			 M146.1,48v-1.4h1.8v-4.2c0-0.3-0.2-0.5-0.5-0.5h-1.2v-1.4h1.8c0.4,0,0.7,0.1,1,0.4c0.3,0.2,0.4,0.6,0.4,1v0.2h0.1
			c0.1-0.6,0.3-1,0.7-1.3s0.9-0.4,1.6-0.4h1.2v1.7h-1.6c-0.6,0-1,0.2-1.4,0.6c-0.3,0.4-0.5,0.9-0.5,1.5v2.5h2.3V48H146.1z
			 M158.5,48.2c-0.7,0-1.3-0.2-1.9-0.5c-0.6-0.3-1-0.8-1.3-1.4c-0.3-0.6-0.5-1.3-0.5-2.1s0.2-1.5,0.5-2.1s0.8-1,1.3-1.4
			c0.6-0.3,1.2-0.5,1.9-0.5s1.4,0.2,1.9,0.5c0.6,0.3,1,0.8,1.3,1.4c0.3,0.6,0.5,1.3,0.5,2.1s-0.2,1.5-0.5,2.1s-0.8,1-1.3,1.4
			C159.8,48,159.2,48.2,158.5,48.2z M158.5,46.7c0.4,0,0.7-0.1,1-0.3s0.6-0.4,0.8-0.8c0.2-0.4,0.3-0.8,0.3-1.4c0-0.5-0.1-1-0.3-1.3
			s-0.4-0.6-0.8-0.8c-0.3-0.2-0.7-0.3-1-0.3c-0.4,0-0.7,0.1-1.1,0.3c-0.3,0.2-0.6,0.4-0.8,0.8c-0.2,0.3-0.3,0.8-0.3,1.3
			c0,0.8,0.2,1.4,0.6,1.8C157.4,46.5,157.9,46.7,158.5,46.7z M167.1,48.2c-0.6,0-1.2-0.1-1.7-0.4c-0.5-0.3-0.9-0.7-1.2-1.3
			s-0.4-1.3-0.4-2.1s0.1-1.6,0.4-2.1c0.3-0.6,0.7-1,1.2-1.3s1.1-0.5,1.7-0.5c0.6,0,1,0.1,1.4,0.3s0.6,0.5,0.8,0.8v-4.3h1.6V48h-1.4
			l-0.1-1.1h-0.1c-0.2,0.4-0.5,0.7-0.9,0.9C168.1,48.1,167.6,48.2,167.1,48.2z M167.4,46.7c0.6,0,1-0.2,1.4-0.6
			c0.4-0.4,0.6-1,0.6-1.8s-0.2-1.4-0.6-1.8c-0.4-0.4-0.8-0.6-1.4-0.6c-0.6,0-1,0.2-1.4,0.6c-0.4,0.4-0.6,1-0.6,1.8s0.2,1.4,0.6,1.8
			C166.4,46.5,166.8,46.7,167.4,46.7z M175.8,48.2c-0.9,0-1.6-0.3-2.1-0.8c-0.5-0.6-0.7-1.4-0.7-2.4v-4.4h1.6v4.2
			c0,0.6,0.1,1.1,0.4,1.4c0.3,0.3,0.7,0.5,1.2,0.5s1-0.2,1.4-0.6s0.6-0.9,0.6-1.6v-4h1.6V48h-1.4l-0.1-1.1h-0.1
			c-0.2,0.4-0.5,0.7-0.9,0.9S176.4,48.2,175.8,48.2z M185.6,48.2c-0.7,0-1.3-0.2-1.9-0.5c-0.5-0.3-1-0.8-1.3-1.4
			c-0.3-0.6-0.5-1.3-0.5-2.1s0.2-1.5,0.5-2.1s0.8-1,1.3-1.3s1.2-0.5,1.8-0.5c0.9,0,1.7,0.2,2.3,0.7s1,1.1,1.1,2h-1.7
			c-0.1-0.4-0.3-0.6-0.6-0.9c-0.3-0.2-0.7-0.3-1.2-0.3c-0.3,0-0.7,0.1-1,0.3s-0.5,0.4-0.7,0.8c-0.2,0.4-0.3,0.8-0.3,1.3
			s0.1,1,0.3,1.3c0.2,0.4,0.4,0.6,0.7,0.8s0.6,0.3,1,0.3c0.5,0,0.9-0.1,1.2-0.3s0.5-0.5,0.6-0.9h1.7c-0.2,0.8-0.6,1.5-1.2,2
			S186.5,48.2,185.6,48.2z M195.3,48c-0.7,0-1.3-0.2-1.7-0.5c-0.4-0.4-0.6-1-0.6-1.9v-3.7h-2v-1.3h1.1c0.5,0,0.8-0.2,0.9-0.8
			l0.2-1.2h1.2v2h2.9v1.3h-2.9v3.6c0,0.4,0.1,0.7,0.3,0.8s0.5,0.2,0.9,0.2h1.7V48H195.3z"/>
		<path class="st2" d="M34,95.9V95h2.1v-6.3l-2,0.4v-0.8l2.4-0.8h0.6V95h2.3v0.9H34z M44.1,96c-0.7,0-1.3-0.2-1.8-0.5
			c-0.5-0.4-0.8-0.8-1-1.4S41,92.8,41,92c0-0.9,0.1-1.7,0.4-2.4c0.3-0.7,0.6-1.3,1.1-1.6c0.5-0.4,1.1-0.6,1.8-0.6
			c0.5,0,1,0.1,1.4,0.3c0.4,0.2,0.7,0.5,0.9,0.8s0.4,0.7,0.4,1.2h-0.9c-0.1-0.4-0.3-0.8-0.6-1c-0.3-0.3-0.7-0.4-1.1-0.4
			c-0.4,0-0.8,0.1-1.1,0.4c-0.3,0.2-0.6,0.6-0.8,1.2c-0.2,0.5-0.3,1.2-0.4,2h0.1c0.2-0.3,0.5-0.6,0.9-0.9s0.8-0.4,1.4-0.4
			c0.5,0,1,0.1,1.4,0.3c0.4,0.2,0.7,0.6,0.9,1s0.4,0.9,0.4,1.4s-0.1,1-0.3,1.4s-0.5,0.8-1,1C45.1,95.9,44.6,96,44.1,96z M44,95.1
			c0.6,0,1-0.2,1.3-0.5c0.3-0.4,0.5-0.8,0.5-1.3s-0.2-1-0.5-1.3c-0.3-0.4-0.8-0.5-1.3-0.5c-0.4,0-0.7,0.1-1,0.2
			c-0.3,0.2-0.5,0.4-0.6,0.7c-0.2,0.3-0.2,0.6-0.2,0.9c0,0.4,0.1,0.7,0.2,0.9c0.2,0.3,0.4,0.5,0.6,0.7C43.3,95,43.6,95.1,44,95.1z
			 M52.1,95.9V94h-4v-0.8l3.8-5.7h1.2V93h1.2v0.9h-1.2v1.9L52.1,95.9L52.1,95.9z M49.2,93h2.9v-4.4L49.2,93z M55.6,95.9v-0.8
			c0.9-0.7,1.6-1.3,2.3-1.9c0.6-0.6,1.1-1.1,1.5-1.7c0.4-0.5,0.5-1.1,0.5-1.6s-0.1-0.9-0.4-1.2c-0.3-0.3-0.7-0.4-1.1-0.4
			c-0.4,0-0.7,0.1-0.9,0.2c-0.3,0.2-0.4,0.4-0.6,0.6c-0.1,0.3-0.2,0.5-0.2,0.9h-1c0-0.6,0.1-1,0.4-1.4c0.2-0.4,0.6-0.7,1-0.9
			c0.4-0.2,0.9-0.3,1.4-0.3c0.8,0,1.5,0.2,1.9,0.7c0.5,0.5,0.7,1.1,0.7,1.8c0,0.5-0.1,1-0.3,1.5s-0.5,0.9-0.9,1.3s-0.8,0.8-1.2,1.2
			s-1.1,0.7-1.6,1.1h4v0.9H55.6z"/>
		<path class="st2" d="M33.8,132.2v-0.9H36V125l-2.1,0.4v-0.8l2.4-0.8H37v7.5h2.3v0.9L33.8,132.2L33.8,132.2z M41,132.2v-0.9h2.2
			V125l-2.1,0.4v-0.8l2.4-0.8h0.7v7.5h2.3v0.9L41,132.2L41,132.2z M51.1,132.4c-0.6,0-1-0.1-1.5-0.3c-0.4-0.2-0.8-0.5-1-0.9
			s-0.4-0.9-0.4-1.4h1c0,0.5,0.2,0.9,0.5,1.2s0.8,0.5,1.4,0.5c0.6,0,1-0.1,1.4-0.4c0.3-0.3,0.5-0.7,0.5-1.2c0-0.4-0.1-0.7-0.3-0.9
			s-0.4-0.4-0.7-0.5s-0.6-0.2-1-0.2h-0.7v-0.9h0.6c0.5,0,1-0.1,1.3-0.3c0.3-0.2,0.5-0.6,0.5-1s-0.1-0.7-0.4-0.9
			c-0.3-0.2-0.6-0.4-1.1-0.4s-0.8,0.1-1.1,0.4s-0.5,0.6-0.5,1h-1c0-0.5,0.1-0.9,0.4-1.2c0.2-0.4,0.5-0.6,0.9-0.8
			c0.4-0.2,0.8-0.3,1.4-0.3c0.6,0,1,0.1,1.4,0.3c0.4,0.2,0.7,0.5,0.9,0.8s0.3,0.7,0.3,1.1s-0.1,0.8-0.4,1.1
			c-0.3,0.3-0.6,0.5-0.9,0.7v0.1c0.5,0.1,0.9,0.4,1.2,0.7s0.5,0.8,0.5,1.4c0,0.5-0.1,0.9-0.3,1.3c-0.2,0.4-0.6,0.7-1,0.9
			C52.2,132.3,51.7,132.4,51.1,132.4z M58.2,132.4c-0.6,0-1.1-0.1-1.5-0.3s-0.7-0.5-1-0.9s-0.4-0.8-0.4-1.3h1
			c0.1,0.5,0.3,0.8,0.6,1.1s0.8,0.4,1.3,0.4c0.6,0,1.1-0.2,1.4-0.6c0.3-0.4,0.5-0.9,0.5-1.5s-0.2-1.1-0.5-1.5
			c-0.4-0.4-0.8-0.5-1.4-0.5c-0.4,0-0.8,0.1-1.2,0.3c-0.3,0.2-0.6,0.5-0.8,0.8h-1l0.7-4.6h4.5v0.9h-3.7l-0.4,2.5h0.1
			c0.2-0.2,0.4-0.4,0.7-0.5c0.3-0.2,0.7-0.2,1.1-0.2c0.6,0,1,0.1,1.4,0.4c0.4,0.2,0.7,0.6,1,1c0.2,0.4,0.3,0.9,0.3,1.5
			c0,0.5-0.1,1-0.3,1.5c-0.2,0.4-0.6,0.8-1,1.1C59.3,132.3,58.8,132.4,58.2,132.4z"/>
		<path class="st2" d="M34.1,175.1v-0.9h2.2v-6.3l-2.1,0.4v-0.8l2.4-0.8h0.7v7.5h2.3v0.9L34.1,175.1L34.1,175.1z M45.1,175.1v-1.9
			h-4v-0.8l3.8-5.7h1.2v5.5h1.2v0.9h-1.2v1.9h-1V175.1z M42.2,172.3h2.9v-4.4L42.2,172.3z M49.7,175.1l3.3-7.5h-4.6v-0.9H54v0.8
			l-3.3,7.6L49.7,175.1L49.7,175.1z M58.4,175.3c-0.6,0-1.1-0.1-1.5-0.3s-0.7-0.5-1-0.9s-0.4-0.8-0.4-1.3h1c0.1,0.5,0.3,0.8,0.6,1.1
			s0.8,0.4,1.3,0.4c0.6,0,1.1-0.2,1.4-0.6c0.3-0.4,0.5-0.9,0.5-1.5s-0.2-1.1-0.5-1.5c-0.4-0.4-0.8-0.5-1.4-0.5
			c-0.4,0-0.8,0.1-1.2,0.3c-0.3,0.2-0.6,0.5-0.8,0.8h-1l0.7-4.6h4.5v0.9h-3.7l-0.4,2.5h0.2c0.2-0.2,0.4-0.4,0.7-0.5
			c0.3-0.2,0.7-0.2,1.1-0.2c0.6,0,1,0.1,1.4,0.4c0.4,0.2,0.7,0.6,1,1c0.2,0.4,0.3,0.9,0.3,1.5c0,0.5-0.1,1-0.3,1.5
			c-0.2,0.4-0.6,0.8-1,1.1C59.6,175.1,59,175.3,58.4,175.3z"/>
		<path class="st2" d="M34.6,215.9V215h2.2v-6.3l-2.1,0.4v-0.8l2.4-0.8h0.7v7.5h2.3v0.9L34.6,215.9L34.6,215.9z M43,215.9l3.3-7.5
			h-4.6v-0.9h5.6v0.8l-3.3,7.6L43,215.9L43,215.9z M51.9,216.1c-0.6,0-1-0.1-1.5-0.3c-0.4-0.2-0.8-0.5-1-0.9
			c-0.3-0.4-0.4-0.9-0.4-1.4h1c0,0.5,0.2,0.9,0.5,1.2s0.8,0.5,1.4,0.5c0.6,0,1-0.1,1.4-0.4c0.3-0.3,0.5-0.7,0.5-1.2
			c0-0.4-0.1-0.7-0.3-0.9s-0.4-0.4-0.7-0.5s-0.6-0.2-1-0.2h-0.7v-1h0.6c0.5,0,1-0.1,1.3-0.3s0.5-0.6,0.5-1s-0.1-0.7-0.4-0.9
			c-0.3-0.2-0.6-0.4-1.1-0.4s-0.8,0.1-1.1,0.4c-0.3,0.3-0.5,0.6-0.5,1h-1c0-0.5,0.1-0.9,0.4-1.2c0.2-0.4,0.5-0.6,0.9-0.8
			s0.8-0.3,1.4-0.3c0.6,0,1,0.1,1.4,0.3s0.7,0.5,0.9,0.8s0.3,0.7,0.3,1.1c0,0.4-0.1,0.8-0.4,1.1c-0.3,0.3-0.6,0.5-0.9,0.7v0.1
			c0.5,0.1,0.9,0.4,1.2,0.7s0.5,0.8,0.5,1.4c0,0.5-0.1,0.9-0.3,1.3c-0.2,0.4-0.6,0.7-1,0.9C53,215.9,52.5,216.1,51.9,216.1z
			 M59.1,216.1c-0.7,0-1.3-0.2-1.8-0.5c-0.5-0.4-0.8-0.8-1-1.4c-0.2-0.6-0.3-1.3-0.3-2.1c0-0.9,0.1-1.7,0.4-2.4
			c0.3-0.7,0.6-1.3,1.1-1.6c0.5-0.4,1.1-0.6,1.8-0.6c0.5,0,1,0.1,1.4,0.3s0.7,0.5,0.9,0.8s0.4,0.7,0.4,1.2h-0.9
			c-0.1-0.4-0.3-0.8-0.6-1c-0.3-0.3-0.7-0.4-1.1-0.4c-0.4,0-0.8,0.1-1.1,0.4c-0.3,0.2-0.6,0.6-0.8,1.2c-0.2,0.5-0.3,1.2-0.4,2H57
			c0.2-0.3,0.5-0.6,0.9-0.9s0.8-0.4,1.4-0.4c0.5,0,1,0.1,1.4,0.3s0.7,0.6,0.9,1s0.4,0.9,0.4,1.4s-0.1,1-0.3,1.4s-0.5,0.8-1,1
			C60.2,215.9,59.7,216.1,59.1,216.1z M59,215.2c0.6,0,1-0.2,1.3-0.5c0.3-0.4,0.5-0.8,0.5-1.3s-0.2-1-0.5-1.3
			c-0.3-0.4-0.8-0.5-1.3-0.5c-0.4,0-0.7,0.1-1,0.2c-0.3,0.2-0.5,0.4-0.6,0.7c-0.2,0.3-0.2,0.6-0.2,0.9c0,0.4,0.1,0.7,0.2,0.9
			c0.2,0.3,0.4,0.5,0.6,0.7C58.3,215.1,58.7,215.2,59,215.2z"/>
		<path class="st2" d="M34.3,255.5v-0.8c0.9-0.7,1.6-1.3,2.3-1.9c0.6-0.6,1.1-1.1,1.5-1.7c0.4-0.5,0.5-1.1,0.5-1.6s-0.1-0.9-0.4-1.2
			c-0.3-0.3-0.7-0.4-1.1-0.4c-0.4,0-0.7,0.1-0.9,0.2s-0.4,0.4-0.6,0.6c-0.1,0.3-0.2,0.5-0.2,0.9h-1c0-0.6,0.1-1,0.4-1.4
			c0.2-0.4,0.6-0.7,1-0.9s0.9-0.3,1.4-0.3c0.8,0,1.5,0.2,1.9,0.7c0.5,0.5,0.7,1.1,0.7,1.8c0,0.5-0.1,1-0.3,1.5s-0.5,0.9-0.9,1.3
			c-0.4,0.4-0.8,0.8-1.2,1.2s-0.9,0.8-1.4,1.1h4v0.9L34.3,255.5L34.3,255.5z M44.2,255.6c-0.6,0-1.2-0.2-1.7-0.5
			c-0.5-0.4-0.9-0.9-1.1-1.5c-0.3-0.6-0.4-1.4-0.4-2.3s0.1-1.7,0.4-2.3c0.3-0.6,0.6-1.1,1.1-1.5s1-0.5,1.7-0.5
			c0.6,0,1.2,0.2,1.7,0.5c0.5,0.4,0.9,0.9,1.1,1.5c0.3,0.6,0.4,1.4,0.4,2.3s-0.1,1.7-0.4,2.3c-0.3,0.6-0.6,1.1-1.1,1.5
			C45.4,255.4,44.9,255.6,44.2,255.6z M42,251.3c0,0.5,0.1,1,0.2,1.5c0.1,0.4,0.3,0.8,0.5,1.1l2.3-5.8c-0.2-0.1-0.5-0.2-0.8-0.2
			c-0.4,0-0.8,0.1-1.1,0.4c-0.3,0.3-0.6,0.7-0.8,1.2C42.1,250,42,250.6,42,251.3z M44.2,254.7c0.4,0,0.8-0.1,1.1-0.4
			c0.3-0.3,0.6-0.7,0.8-1.2s0.3-1.1,0.3-1.8c0-0.5-0.1-1-0.2-1.5c-0.1-0.4-0.3-0.8-0.5-1.1l-2.3,5.8
			C43.6,254.6,43.9,254.7,44.2,254.7z M51.4,255.6c-0.6,0-1.1-0.1-1.5-0.3s-0.7-0.5-1-0.9s-0.4-0.8-0.4-1.3h1
			c0.1,0.5,0.3,0.8,0.6,1.1s0.8,0.4,1.3,0.4c0.6,0,1.1-0.2,1.4-0.6c0.3-0.4,0.5-0.9,0.5-1.5s-0.2-1.1-0.5-1.5
			c-0.4-0.4-0.8-0.5-1.4-0.5c-0.4,0-0.8,0.1-1.2,0.3c-0.3,0.2-0.6,0.5-0.8,0.8h-1l0.7-4.6h4.5v0.9h-3.7l-0.4,2.5h0.1
			c0.2-0.2,0.4-0.4,0.7-0.5c0.3-0.2,0.7-0.2,1.1-0.2c0.6,0,1,0.1,1.4,0.4c0.4,0.2,0.7,0.6,1,1c0.2,0.4,0.3,0.9,0.3,1.5
			c0,0.5-0.1,1-0.3,1.5c-0.2,0.4-0.6,0.8-1,1.1C52.5,255.5,52,255.6,51.4,255.6z"/>
		<path class="st2" d="M37.3,295.7c-0.6,0-1-0.1-1.5-0.3c-0.4-0.2-0.8-0.5-1-0.9s-0.4-0.9-0.4-1.4h1c0,0.5,0.2,0.9,0.5,1.2
			c0.3,0.3,0.8,0.5,1.4,0.5c0.6,0,1-0.1,1.4-0.4c0.3-0.3,0.5-0.7,0.5-1.2c0-0.4-0.1-0.7-0.3-0.9c-0.2-0.2-0.4-0.4-0.7-0.5
			s-0.6-0.2-1-0.2h-0.7v-0.9h0.6c0.5,0,1-0.1,1.3-0.3c0.3-0.2,0.5-0.6,0.5-1s-0.1-0.7-0.4-0.9c-0.3-0.2-0.6-0.4-1.1-0.4
			s-0.8,0.1-1.1,0.4s-0.5,0.6-0.5,1h-1c0-0.5,0.1-0.9,0.4-1.2c0.2-0.4,0.5-0.6,0.9-0.8c0.4-0.2,0.8-0.3,1.4-0.3c0.6,0,1,0.1,1.4,0.3
			c0.4,0.2,0.7,0.5,0.9,0.8s0.3,0.7,0.3,1.1s-0.1,0.8-0.4,1.1c-0.3,0.3-0.6,0.5-0.9,0.7v0.1c0.5,0.1,0.9,0.4,1.2,0.7
			s0.5,0.8,0.5,1.4c0,0.5-0.1,0.9-0.3,1.3s-0.6,0.7-1,0.9C38.4,295.6,37.9,295.7,37.3,295.7z M44.4,295.7c-0.6,0-1.2-0.2-1.7-0.5
			c-0.5-0.4-0.9-0.9-1.1-1.5c-0.3-0.6-0.4-1.4-0.4-2.3s0.1-1.7,0.4-2.3c0.3-0.6,0.6-1.1,1.1-1.5s1-0.5,1.7-0.5
			c0.6,0,1.2,0.2,1.7,0.5c0.5,0.4,0.9,0.9,1.1,1.5c0.3,0.6,0.4,1.4,0.4,2.3s-0.1,1.7-0.4,2.3c-0.3,0.6-0.6,1.1-1.1,1.5
			C45.6,295.6,45,295.7,44.4,295.7z M42.2,291.4c0,0.5,0.1,1,0.2,1.5c0.1,0.4,0.3,0.8,0.5,1.1l2.3-5.8c-0.2-0.1-0.5-0.2-0.8-0.2
			c-0.4,0-0.8,0.1-1.1,0.4s-0.6,0.7-0.8,1.2C42.3,290.1,42.2,290.7,42.2,291.4z M44.4,294.8c0.4,0,0.8-0.1,1.1-0.4s0.6-0.7,0.8-1.2
			s0.3-1.1,0.3-1.8c0-0.5-0.1-1-0.2-1.5c-0.1-0.4-0.3-0.8-0.5-1.1l-2.3,5.8C43.8,294.8,44.1,294.8,44.4,294.8z M51.7,295.7
			c-0.6,0-1-0.1-1.5-0.3c-0.4-0.2-0.8-0.5-1-0.9s-0.4-0.9-0.4-1.4h1c0,0.5,0.2,0.9,0.5,1.2c0.3,0.3,0.8,0.5,1.4,0.5
			c0.6,0,1-0.1,1.4-0.4c0.3-0.3,0.5-0.7,0.5-1.2c0-0.4-0.1-0.7-0.3-0.9c-0.2-0.2-0.4-0.4-0.7-0.5s-0.6-0.2-1-0.2h-0.7v-0.9h0.6
			c0.5,0,1-0.1,1.3-0.3c0.3-0.2,0.5-0.6,0.5-1s-0.1-0.7-0.4-0.9c-0.3-0.2-0.6-0.4-1.1-0.4s-0.8,0.1-1.1,0.4s-0.5,0.6-0.5,1h-1
			c0-0.5,0.1-0.9,0.4-1.2c0.2-0.4,0.5-0.6,0.9-0.8c0.4-0.2,0.8-0.3,1.4-0.3c0.6,0,1,0.1,1.4,0.3c0.4,0.2,0.7,0.5,0.9,0.8
			s0.3,0.7,0.3,1.1s-0.1,0.8-0.4,1.1c-0.3,0.3-0.6,0.5-0.9,0.7v0.1c0.5,0.1,0.9,0.4,1.2,0.7s0.5,0.8,0.5,1.4c0,0.5-0.1,0.9-0.3,1.3
			s-0.6,0.7-1,0.9C52.8,295.6,52.3,295.7,51.7,295.7z"/>
		<path class="st2" d="M136.5,96.3v-0.9h2v-6.6c0-0.2-0.1-0.3-0.3-0.3h-1.5v-0.9h1.8c0.3,0,0.6,0.1,0.8,0.3c0.2,0.2,0.3,0.4,0.3,0.8
			v6.7h2v0.9H136.5z M145.9,96.4c-0.5,0-0.9-0.1-1.2-0.3c-0.3-0.2-0.5-0.4-0.7-0.7c-0.2-0.3-0.2-0.6-0.2-0.9c0-0.6,0.2-1.1,0.7-1.4
			c0.4-0.3,1-0.5,1.8-0.5h1.6v-0.1c0-1-0.5-1.6-1.4-1.6c-0.4,0-0.7,0.1-1,0.3c-0.3,0.2-0.4,0.4-0.5,0.8h-1c0-0.4,0.2-0.7,0.4-1
			s0.5-0.5,0.9-0.7s0.8-0.2,1.2-0.2c0.8,0,1.5,0.2,1.8,0.7c0.4,0.4,0.6,1,0.6,1.8v3.7H148l-0.1-0.9h-0.1c-0.2,0.3-0.4,0.5-0.7,0.8
			C146.9,96.3,146.4,96.4,145.9,96.4z M146.1,95.5c0.4,0,0.7-0.1,1-0.3c0.3-0.2,0.5-0.4,0.6-0.7c0.1-0.3,0.2-0.6,0.2-1h-1.5
			c-0.5,0-0.9,0.1-1.2,0.3c-0.2,0.2-0.3,0.4-0.3,0.7c0,0.3,0.1,0.6,0.3,0.7C145.4,95.4,145.7,95.5,146.1,95.5z M150.9,98.9v-8.6h0.8
			l0.1,1h0.1c0.2-0.3,0.4-0.6,0.7-0.8s0.7-0.3,1.2-0.3s0.9,0.1,1.3,0.4c0.4,0.2,0.7,0.6,0.9,1.1s0.3,1,0.3,1.7s-0.1,1.2-0.3,1.7
			s-0.5,0.8-0.9,1.1c-0.4,0.2-0.8,0.4-1.4,0.4c-0.5,0-0.8-0.1-1.2-0.3c-0.3-0.2-0.5-0.4-0.7-0.7v3.5h-0.9V98.9z M153.7,95.4
			c0.5,0,0.9-0.2,1.2-0.5c0.3-0.4,0.5-0.9,0.5-1.6s-0.2-1.3-0.5-1.6c-0.3-0.4-0.7-0.5-1.2-0.5s-0.9,0.2-1.2,0.5
			c-0.3,0.4-0.5,0.9-0.5,1.6s0.2,1.3,0.5,1.6C152.7,95.3,153.2,95.4,153.7,95.4z M161.4,96.3c-0.5,0-1-0.1-1.3-0.4s-0.5-0.7-0.5-1.4
			v-3.3h-1.5v-0.9h0.9c0.4,0,0.6-0.2,0.7-0.6l0.2-0.9h0.7v1.5h2.4v0.9h-2.4v3.3c0,0.3,0.1,0.6,0.2,0.7c0.2,0.1,0.4,0.2,0.8,0.2h1.3
			v0.9C162.9,96.3,161.4,96.3,161.4,96.3z M168,96.4c-0.6,0-1.1-0.1-1.5-0.4s-0.8-0.6-1-1.1s-0.4-1-0.4-1.7c0-0.6,0.1-1.2,0.4-1.6
			c0.2-0.5,0.6-0.8,1-1.1c0.4-0.3,0.9-0.4,1.5-0.4s1.1,0.1,1.5,0.4s0.8,0.6,1,1.1s0.4,1,0.4,1.6s-0.1,1.2-0.4,1.7
			c-0.2,0.5-0.6,0.8-1,1.1C169.1,96.3,168.6,96.4,168,96.4z M168,95.4c0.3,0,0.7-0.1,0.9-0.2c0.3-0.2,0.5-0.4,0.7-0.7
			c0.2-0.3,0.3-0.7,0.3-1.2s-0.1-0.9-0.3-1.2c-0.2-0.3-0.4-0.6-0.7-0.7c-0.3-0.2-0.6-0.2-0.9-0.2c-0.3,0-0.6,0.1-0.9,0.2
			c-0.3,0.2-0.5,0.4-0.7,0.7c-0.2,0.3-0.3,0.7-0.3,1.2c0,0.7,0.2,1.3,0.5,1.6C167,95.3,167.5,95.4,168,95.4z M172.5,98.9v-8.6h0.8
			l0.1,1h0.1c0.2-0.3,0.4-0.6,0.7-0.8s0.7-0.3,1.2-0.3s0.9,0.1,1.3,0.4c0.4,0.2,0.7,0.6,0.9,1.1s0.3,1,0.3,1.7s-0.1,1.2-0.3,1.7
			s-0.5,0.8-0.9,1.1c-0.4,0.2-0.8,0.4-1.4,0.4c-0.5,0-0.8-0.1-1.2-0.3c-0.3-0.2-0.5-0.4-0.7-0.7v3.5h-0.9V98.9z M175.3,95.4
			c0.5,0,0.9-0.2,1.2-0.5c0.3-0.4,0.5-0.9,0.5-1.6s-0.2-1.3-0.5-1.6c-0.3-0.4-0.7-0.5-1.2-0.5s-0.9,0.2-1.2,0.5
			c-0.3,0.4-0.5,0.9-0.5,1.6s0.2,1.3,0.5,1.6C174.3,95.3,174.7,95.4,175.3,95.4z"/>
		<path class="st2" d="M139.3,134.2c-0.5,0-1-0.1-1.3-0.4c-0.3-0.3-0.5-0.7-0.5-1.4v-3.3H136v-0.9h0.9c0.4,0,0.6-0.2,0.7-0.6
			l0.2-0.9h0.7v1.5h2.4v0.9h-2.4v3.3c0,0.3,0.1,0.6,0.2,0.7c0.2,0.1,0.4,0.2,0.8,0.2h1.3v0.9H139.3z M145.3,134.2l-2.6-6h1.2
			l2.1,4.8l2.1-4.8h1.1l-2.6,6H145.3z"/>
		<path class="st2" d="M139.8,174.3c-0.8,0-1.4-0.2-1.8-0.5c-0.5-0.4-0.7-0.9-0.8-1.5h1c0,0.3,0.2,0.6,0.5,0.8s0.7,0.3,1.1,0.3
			c0.4,0,0.8-0.1,1-0.3s0.3-0.4,0.3-0.7s-0.1-0.6-0.4-0.7c-0.3-0.1-0.7-0.2-1.2-0.3c-0.6-0.1-1.2-0.2-1.6-0.5
			c-0.4-0.3-0.6-0.7-0.6-1.2s0.2-0.9,0.6-1.2c0.4-0.3,1-0.5,1.7-0.5s1.2,0.2,1.6,0.5c0.4,0.3,0.6,0.8,0.7,1.3h-1
			c0-0.3-0.2-0.5-0.4-0.7s-0.6-0.3-0.9-0.3c-0.4,0-0.7,0.1-0.9,0.2c-0.2,0.1-0.3,0.3-0.3,0.6s0.1,0.4,0.4,0.6
			c0.2,0.2,0.6,0.3,1.2,0.3c0.4,0,0.8,0.1,1.1,0.2c0.3,0.1,0.6,0.3,0.8,0.5s0.3,0.6,0.3,1s-0.1,0.7-0.3,1s-0.5,0.5-0.8,0.7
			C140.7,174.2,140.3,174.3,139.8,174.3z M143.8,174.1v-6h0.8l0.1,0.7h0.1c0.1-0.2,0.3-0.4,0.5-0.6c0.2-0.2,0.5-0.2,0.8-0.2
			s0.6,0.1,0.8,0.2c0.2,0.1,0.4,0.3,0.5,0.6l0,0c0.1-0.2,0.3-0.4,0.5-0.6c0.2-0.2,0.5-0.2,0.8-0.2c0.5,0,0.8,0.2,1,0.5
			s0.3,0.7,0.3,1.2v4.4h-1v-4.2c0-0.3-0.1-0.5-0.2-0.7c-0.1-0.2-0.3-0.3-0.6-0.3s-0.5,0.1-0.6,0.3s-0.3,0.5-0.3,0.9v4h-1v-4.2
			c0-0.3-0.1-0.5-0.2-0.7s-0.3-0.3-0.6-0.3s-0.5,0.1-0.7,0.3s-0.3,0.5-0.3,0.9v4L143.8,174.1L143.8,174.1z M153.7,174.3
			c-0.5,0-0.9-0.1-1.2-0.3s-0.5-0.4-0.7-0.7s-0.2-0.6-0.2-0.9c0-0.6,0.2-1.1,0.7-1.4c0.4-0.3,1-0.5,1.8-0.5h1.6v-0.1
			c0-1-0.5-1.6-1.4-1.6c-0.4,0-0.7,0.1-1,0.3s-0.4,0.4-0.5,0.8h-1c0-0.4,0.2-0.7,0.4-1s0.5-0.5,0.9-0.7s0.8-0.2,1.2-0.2
			c0.8,0,1.5,0.2,1.8,0.7c0.4,0.4,0.6,1,0.6,1.8v3.7h-0.9l-0.1-0.9h-0.1c-0.2,0.3-0.4,0.5-0.7,0.8
			C154.6,174.2,154.2,174.3,153.7,174.3z M153.8,173.4c0.4,0,0.7-0.1,1-0.3s0.5-0.4,0.6-0.7s0.2-0.6,0.2-1h-1.5
			c-0.5,0-0.9,0.1-1.2,0.3c-0.2,0.2-0.3,0.4-0.3,0.7s0.1,0.6,0.3,0.7C153.1,173.3,153.4,173.4,153.8,173.4z M158.8,174.1v-0.9h1.5
			v-3.9c0-0.2-0.1-0.3-0.3-0.3h-1.1v-0.9h1.5c0.3,0,0.5,0.1,0.6,0.2c0.2,0.1,0.2,0.4,0.2,0.6v0.3l0,0c0.1-0.4,0.3-0.7,0.5-0.9
			c0.3-0.2,0.6-0.3,1.1-0.3h1.1v1.1h-1.2c-0.5,0-0.9,0.2-1.1,0.5c-0.3,0.3-0.4,0.7-0.4,1.2v2.4h1.9v0.9L158.8,174.1L158.8,174.1z
			 M169.2,174.1c-0.5,0-1-0.1-1.3-0.4c-0.3-0.3-0.5-0.7-0.5-1.4V169h-1.5v-0.9h0.9c0.4,0,0.6-0.2,0.7-0.6l0.2-0.9h0.7v1.5h2.4v0.9
			h-2.4v3.3c0,0.3,0.1,0.6,0.2,0.7c0.2,0.1,0.4,0.2,0.8,0.2h1.3v0.9L169.2,174.1L169.2,174.1z M173.1,176.8v-8.6h0.8l0.1,1h0.1
			c0.2-0.3,0.4-0.6,0.7-0.8s0.7-0.3,1.2-0.3s0.9,0.1,1.3,0.4c0.4,0.2,0.7,0.6,0.9,1.1s0.3,1,0.3,1.7s-0.1,1.2-0.3,1.7
			s-0.5,0.8-0.9,1.1c-0.4,0.2-0.8,0.4-1.4,0.4c-0.5,0-0.8-0.1-1.2-0.3c-0.3-0.2-0.5-0.4-0.7-0.7v3.5h-0.9V176.8z M175.8,173.3
			c0.5,0,0.9-0.2,1.2-0.5c0.3-0.4,0.5-0.9,0.5-1.6s-0.2-1.3-0.5-1.6c-0.3-0.4-0.7-0.5-1.2-0.5s-0.9,0.2-1.2,0.5
			c-0.3,0.4-0.5,0.9-0.5,1.6s0.2,1.3,0.5,1.6C174.9,173.1,175.3,173.3,175.8,173.3z M180.3,174.1v-8.6h1v3.6
			c0.2-0.3,0.4-0.6,0.8-0.7c0.4-0.2,0.8-0.3,1.2-0.3c0.7,0,1.3,0.2,1.7,0.7c0.4,0.4,0.6,1.1,0.6,1.8v3.6h-1v-3.5
			c0-0.5-0.1-1-0.4-1.2c-0.3-0.3-0.6-0.4-1.1-0.4c-0.3,0-0.6,0.1-0.9,0.2c-0.3,0.1-0.5,0.4-0.6,0.6c-0.2,0.3-0.2,0.6-0.2,1v3.3h-1.1
			V174.1z M190.1,174.3c-0.6,0-1.1-0.1-1.5-0.4c-0.4-0.3-0.8-0.6-1-1.1s-0.4-1-0.4-1.7s0.1-1.2,0.4-1.6c0.2-0.5,0.6-0.8,1-1.1
			s0.9-0.4,1.5-0.4s1.1,0.1,1.5,0.4c0.4,0.3,0.8,0.6,1,1.1s0.4,1,0.4,1.6s-0.1,1.2-0.4,1.7c-0.2,0.5-0.6,0.8-1,1.1
			C191.2,174.2,190.7,174.3,190.1,174.3z M190.1,173.3c0.3,0,0.7-0.1,0.9-0.2c0.3-0.2,0.5-0.4,0.7-0.7s0.3-0.7,0.3-1.2
			s-0.1-0.9-0.3-1.2s-0.4-0.6-0.7-0.7c-0.3-0.2-0.6-0.2-0.9-0.2c-0.3,0-0.6,0.1-0.9,0.2c-0.3,0.2-0.5,0.4-0.7,0.7s-0.3,0.7-0.3,1.2
			c0,0.7,0.2,1.3,0.5,1.6C189.2,173.1,189.6,173.3,190.1,173.3z M194.8,174.1v-6h0.8l0.1,0.9h0.1c0.2-0.3,0.4-0.5,0.8-0.7
			c0.3-0.2,0.7-0.3,1.2-0.3c0.7,0,1.3,0.2,1.6,0.6c0.4,0.4,0.6,1.1,0.6,1.9v3.6h-1v-3.5c0-0.5-0.1-0.9-0.3-1.2s-0.6-0.5-1.1-0.5
			s-0.9,0.2-1.2,0.5s-0.5,0.8-0.5,1.4v3.3H194.8z M204.6,174.3c-0.6,0-1.1-0.1-1.5-0.4c-0.4-0.3-0.8-0.6-1-1.1s-0.4-1-0.4-1.6
			s0.1-1.2,0.4-1.6c0.2-0.5,0.6-0.8,1-1.1s0.9-0.4,1.5-0.4s1.1,0.1,1.5,0.4c0.4,0.3,0.7,0.6,0.9,1s0.3,0.9,0.3,1.4
			c0,0.1,0,0.2,0,0.3s0,0.2,0,0.3h-4.6c0,0.4,0.1,0.8,0.3,1.1s0.4,0.5,0.7,0.6s0.6,0.2,0.9,0.2c0.4,0,0.8-0.1,1-0.3s0.4-0.4,0.6-0.8
			h1c-0.1,0.6-0.4,1-0.9,1.4C205.9,174.1,205.3,174.3,204.6,174.3z M204.6,168.9c-0.5,0-0.9,0.1-1.2,0.4c-0.3,0.3-0.6,0.7-0.6,1.2
			h3.6c0-0.5-0.2-0.9-0.5-1.2C205.5,169.1,205.1,168.9,204.6,168.9z"/>
		<path class="st2" d="M140.3,214.3c-0.5,0-1-0.1-1.3-0.4c-0.3-0.3-0.5-0.7-0.5-1.4v-3.3H137v-0.9h0.9c0.4,0,0.6-0.2,0.7-0.6
			l0.2-0.9h0.7v1.5h2.4v0.9h-2.4v3.3c0,0.3,0.1,0.6,0.2,0.7c0.2,0.1,0.4,0.2,0.8,0.2h1.3v0.9H140.3z M146.3,214.3l-2.6-6h1.2
			l2.1,4.8l2.1-4.8h1.1l-2.6,6H146.3z"/>
		<path class="st2" d="M138.8,254.4c-0.8,0-1.4-0.2-1.8-0.5c-0.5-0.4-0.7-0.9-0.8-1.5h1c0,0.3,0.2,0.6,0.5,0.8s0.7,0.3,1.1,0.3
			c0.4,0,0.8-0.1,1-0.3s0.3-0.4,0.3-0.7s-0.1-0.6-0.4-0.7c-0.3-0.1-0.7-0.2-1.2-0.3c-0.6-0.1-1.2-0.2-1.6-0.5
			c-0.4-0.3-0.6-0.7-0.6-1.2s0.2-0.9,0.6-1.2c0.4-0.3,1-0.5,1.7-0.5s1.2,0.2,1.6,0.5c0.4,0.3,0.6,0.8,0.7,1.3h-1
			c0-0.3-0.2-0.5-0.4-0.7s-0.6-0.3-0.9-0.3c-0.4,0-0.7,0.1-0.9,0.2c-0.2,0.1-0.3,0.3-0.3,0.6s0.1,0.4,0.4,0.6
			c0.2,0.2,0.6,0.3,1.2,0.3c0.4,0,0.8,0.1,1.1,0.2s0.6,0.3,0.8,0.5s0.3,0.6,0.3,1s-0.1,0.7-0.3,1s-0.5,0.5-0.8,0.7
			C139.7,254.3,139.3,254.4,138.8,254.4z M142.8,254.3v-6h0.8l0.1,0.7h0.1c0.1-0.2,0.3-0.4,0.5-0.6c0.2-0.2,0.5-0.2,0.8-0.2
			s0.6,0.1,0.8,0.2c0.2,0.1,0.4,0.3,0.5,0.6l0,0c0.1-0.2,0.3-0.4,0.5-0.6c0.2-0.2,0.5-0.2,0.8-0.2c0.5,0,0.8,0.2,1,0.5
			s0.3,0.7,0.3,1.2v4.4h-1V250c0-0.3-0.1-0.5-0.2-0.7c-0.1-0.2-0.3-0.3-0.6-0.3s-0.5,0.1-0.6,0.3s-0.3,0.5-0.3,0.9v4h-1V250
			c0-0.3-0.1-0.5-0.2-0.7s-0.3-0.3-0.6-0.3s-0.5,0.1-0.7,0.3s-0.3,0.5-0.3,0.9v4h-0.7V254.3z M152.7,254.4c-0.5,0-0.9-0.1-1.2-0.3
			s-0.5-0.4-0.7-0.7s-0.2-0.6-0.2-0.9c0-0.6,0.2-1.1,0.7-1.4c0.4-0.3,1-0.5,1.8-0.5h1.6v-0.1c0-1-0.5-1.6-1.4-1.6
			c-0.4,0-0.7,0.1-1,0.3s-0.4,0.4-0.5,0.8h-1c0-0.4,0.2-0.7,0.4-1s0.5-0.5,0.9-0.7s0.8-0.2,1.2-0.2c0.8,0,1.5,0.2,1.8,0.7
			c0.4,0.4,0.6,1,0.6,1.8v3.7h-0.9l-0.1-0.9h-0.1c-0.2,0.3-0.4,0.5-0.7,0.8C153.6,254.3,153.2,254.4,152.7,254.4z M152.8,253.5
			c0.4,0,0.7-0.1,1-0.3s0.5-0.4,0.6-0.7s0.2-0.6,0.2-1h-1.5c-0.5,0-0.9,0.1-1.2,0.3c-0.2,0.2-0.3,0.4-0.3,0.7s0.1,0.6,0.3,0.7
			C152.1,253.4,152.4,253.5,152.8,253.5z M157.8,254.3v-0.9h1.5v-3.9c0-0.2-0.1-0.3-0.3-0.3h-1.1v-0.9h1.5c0.3,0,0.5,0.1,0.6,0.2
			c0.2,0.1,0.2,0.4,0.2,0.6v0.3l0,0c0.1-0.4,0.3-0.7,0.5-0.9c0.3-0.2,0.6-0.3,1.1-0.3h1.1v1.1h-1.2c-0.5,0-0.9,0.2-1.1,0.5
			c-0.3,0.3-0.4,0.7-0.4,1.2v2.4h1.9v0.9L157.8,254.3L157.8,254.3z M168.2,254.3c-0.5,0-1-0.1-1.3-0.4c-0.3-0.3-0.5-0.7-0.5-1.4
			v-3.3h-1.5v-0.9h0.9c0.4,0,0.6-0.2,0.7-0.6l0.2-0.9h0.7v1.5h2.4v0.9h-2.4v3.3c0,0.3,0.1,0.6,0.2,0.7c0.2,0.1,0.4,0.2,0.8,0.2h1.3
			v0.9H168.2z M172.1,256.9v-8.6h0.8l0.1,1h0.1c0.2-0.3,0.4-0.6,0.7-0.8s0.7-0.3,1.2-0.3s0.9,0.1,1.3,0.4c0.4,0.2,0.7,0.6,0.9,1.1
			s0.3,1,0.3,1.7s-0.1,1.2-0.3,1.7s-0.5,0.8-0.9,1.1c-0.4,0.2-0.8,0.4-1.4,0.4c-0.5,0-0.8-0.1-1.2-0.3c-0.3-0.2-0.5-0.4-0.7-0.7v3.5
			h-0.9V256.9z M174.8,253.4c0.5,0,0.9-0.2,1.2-0.5c0.3-0.4,0.5-0.9,0.5-1.6s-0.2-1.3-0.5-1.6c-0.3-0.4-0.7-0.5-1.2-0.5
			s-0.9,0.2-1.2,0.5c-0.3,0.4-0.5,0.9-0.5,1.6s0.2,1.3,0.5,1.6C173.9,253.3,174.3,253.4,174.8,253.4z M179.3,254.3v-8.6h1v3.6
			c0.2-0.3,0.4-0.6,0.8-0.7c0.4-0.2,0.8-0.3,1.2-0.3c0.7,0,1.3,0.2,1.7,0.7c0.4,0.4,0.6,1.1,0.6,1.8v3.6h-1v-3.5
			c0-0.5-0.1-1-0.4-1.2c-0.3-0.3-0.6-0.4-1.1-0.4c-0.3,0-0.6,0.1-0.9,0.2c-0.3,0.1-0.5,0.4-0.6,0.6s-0.2,0.6-0.2,1v3.3h-1.1V254.3z
			 M189.1,254.4c-0.6,0-1.1-0.1-1.5-0.4c-0.4-0.3-0.8-0.6-1-1.1s-0.4-1-0.4-1.7s0.1-1.2,0.4-1.6c0.2-0.5,0.6-0.8,1-1.1
			s0.9-0.4,1.5-0.4s1.1,0.1,1.5,0.4c0.4,0.3,0.8,0.6,1,1.1s0.4,1,0.4,1.6s-0.1,1.2-0.4,1.7c-0.2,0.5-0.6,0.8-1,1.1
			S189.7,254.4,189.1,254.4z M189.1,253.4c0.3,0,0.7-0.1,0.9-0.2c0.3-0.2,0.5-0.4,0.7-0.7s0.3-0.7,0.3-1.2s-0.1-0.9-0.3-1.2
			s-0.4-0.6-0.7-0.7c-0.3-0.2-0.6-0.2-0.9-0.2c-0.3,0-0.6,0.1-0.9,0.2c-0.3,0.2-0.5,0.4-0.7,0.7s-0.3,0.7-0.3,1.2
			c0,0.7,0.2,1.3,0.5,1.6C188.2,253.3,188.6,253.4,189.1,253.4z M193.8,254.3v-6h0.8l0.1,0.9h0.1c0.2-0.3,0.4-0.5,0.8-0.7
			c0.3-0.2,0.7-0.3,1.2-0.3c0.7,0,1.3,0.2,1.6,0.6c0.4,0.4,0.6,1.1,0.6,1.9v3.6h-1v-3.5c0-0.5-0.1-0.9-0.3-1.2s-0.6-0.5-1.1-0.5
			s-0.9,0.2-1.2,0.5s-0.5,0.8-0.5,1.4v3.3H193.8z M203.6,254.4c-0.6,0-1.1-0.1-1.5-0.4c-0.4-0.3-0.8-0.6-1-1.1s-0.4-1-0.4-1.6
			s0.1-1.2,0.4-1.6c0.2-0.5,0.6-0.8,1-1.1s0.9-0.4,1.5-0.4s1.1,0.1,1.5,0.4c0.4,0.3,0.7,0.6,0.9,1s0.3,0.9,0.3,1.4
			c0,0.1,0,0.2,0,0.3s0,0.2,0,0.3h-4.6c0,0.4,0.1,0.8,0.3,1.1s0.4,0.5,0.7,0.6s0.6,0.2,0.9,0.2c0.4,0,0.8-0.1,1-0.3s0.4-0.4,0.6-0.8
			h1c-0.1,0.6-0.4,1-0.9,1.4C204.9,254.2,204.3,254.4,203.6,254.4z M203.6,249.1c-0.5,0-0.9,0.1-1.2,0.4c-0.3,0.3-0.6,0.7-0.6,1.2
			h3.6c0-0.5-0.2-0.9-0.5-1.2C204.5,249.2,204.1,249.1,203.6,249.1z"/>
		<path class="st2" d="M139.5,294.5c-0.5,0-1-0.1-1.4-0.4c-0.4-0.2-0.7-0.6-1-1.1c-0.2-0.5-0.4-1-0.4-1.7c0-0.6,0.1-1.2,0.4-1.7
			c0.2-0.5,0.6-0.8,1-1.1c0.4-0.2,0.9-0.4,1.4-0.4c0.7,0,1.3,0.2,1.8,0.6c0.4,0.4,0.7,0.9,0.8,1.5h-1c-0.1-0.3-0.3-0.6-0.6-0.8
			c-0.3-0.2-0.6-0.3-1-0.3c-0.3,0-0.6,0.1-0.9,0.2c-0.3,0.2-0.5,0.4-0.7,0.7c-0.2,0.3-0.3,0.7-0.3,1.2s0.1,0.9,0.3,1.2
			c0.2,0.3,0.4,0.6,0.7,0.7c0.3,0.2,0.6,0.2,0.9,0.2c0.4,0,0.8-0.1,1-0.3c0.3-0.2,0.4-0.5,0.5-0.8h1c-0.2,0.6-0.5,1.1-0.9,1.5
			C140.7,294.3,140.2,294.5,139.5,294.5z M146.1,294.5c-0.5,0-0.9-0.1-1.2-0.3c-0.3-0.2-0.5-0.4-0.7-0.7c-0.2-0.3-0.2-0.6-0.2-0.9
			c0-0.6,0.2-1.1,0.7-1.4c0.4-0.3,1-0.5,1.8-0.5h1.6v-0.1c0-1-0.5-1.6-1.4-1.6c-0.4,0-0.7,0.1-1,0.3c-0.3,0.2-0.4,0.4-0.5,0.8h-1
			c0-0.4,0.2-0.7,0.4-1s0.5-0.5,0.9-0.7s0.8-0.2,1.2-0.2c0.8,0,1.5,0.2,1.8,0.7c0.4,0.4,0.6,1,0.6,1.8v3.7h-0.9l-0.1-0.9H148
			c-0.2,0.3-0.4,0.5-0.7,0.8C147,294.4,146.6,294.5,146.1,294.5z M146.2,293.6c0.4,0,0.7-0.1,1-0.3c0.3-0.2,0.5-0.4,0.6-0.7
			c0.1-0.3,0.2-0.6,0.2-1h-1.5c-0.5,0-0.9,0.1-1.2,0.3c-0.2,0.2-0.3,0.4-0.3,0.7c0,0.3,0.1,0.6,0.3,0.7
			C145.5,293.5,145.8,293.6,146.2,293.6z M150.6,294.4v-6h0.8l0.1,0.7h0.1c0.1-0.2,0.3-0.4,0.5-0.6s0.5-0.2,0.8-0.2s0.6,0.1,0.8,0.2
			s0.4,0.3,0.5,0.6l0,0c0.1-0.2,0.3-0.4,0.5-0.6s0.5-0.2,0.8-0.2c0.5,0,0.8,0.2,1,0.5s0.3,0.7,0.3,1.2v4.4h-1v-4.2
			c0-0.3-0.1-0.5-0.2-0.7c-0.1-0.2-0.3-0.3-0.6-0.3s-0.5,0.1-0.6,0.3s-0.3,0.5-0.3,0.9v4h-1v-4.2c0-0.3-0.1-0.5-0.2-0.7
			s-0.3-0.3-0.6-0.3s-0.5,0.1-0.7,0.3c-0.2,0.2-0.3,0.5-0.3,0.9v4L150.6,294.4L150.6,294.4z M161,294.5c-0.6,0-1.1-0.1-1.5-0.4
			s-0.8-0.6-1-1.1s-0.4-1-0.4-1.6s0.1-1.2,0.4-1.6c0.2-0.5,0.6-0.8,1-1.1c0.4-0.3,0.9-0.4,1.5-0.4s1.1,0.1,1.5,0.4s0.7,0.6,0.9,1
			s0.3,0.9,0.3,1.4c0,0.1,0,0.2,0,0.3c0,0.1,0,0.2,0,0.3h-4.6c0,0.4,0.1,0.8,0.3,1.1c0.2,0.3,0.4,0.5,0.7,0.6s0.6,0.2,0.9,0.2
			c0.4,0,0.8-0.1,1-0.3s0.4-0.4,0.6-0.8h1c-0.1,0.6-0.4,1-0.9,1.4C162.3,294.3,161.7,294.5,161,294.5z M161,289.2
			c-0.5,0-0.9,0.1-1.2,0.4s-0.6,0.7-0.6,1.2h3.6c0-0.5-0.2-0.9-0.5-1.2C161.9,289.3,161.5,289.2,161,289.2z M165.6,294.4v-0.9h1.5
			v-3.9c0-0.2-0.1-0.3-0.3-0.3h-1.1v-0.9h1.5c0.3,0,0.5,0.1,0.6,0.2c0.2,0.1,0.2,0.4,0.2,0.6v0.3l0,0c0.1-0.4,0.3-0.7,0.5-0.9
			c0.3-0.2,0.6-0.3,1.1-0.3h1.1v1.1h-1.2c-0.5,0-0.9,0.2-1.1,0.5c-0.3,0.3-0.4,0.7-0.4,1.2v2.4h1.9v0.9L165.6,294.4L165.6,294.4z
			 M174.8,294.5c-0.5,0-0.9-0.1-1.2-0.3c-0.3-0.2-0.5-0.4-0.7-0.7c-0.2-0.3-0.2-0.6-0.2-0.9c0-0.6,0.2-1.1,0.7-1.4
			c0.4-0.3,1-0.5,1.8-0.5h1.6v-0.1c0-1-0.5-1.6-1.4-1.6c-0.4,0-0.7,0.1-1,0.3c-0.3,0.2-0.4,0.4-0.5,0.8h-1c0-0.4,0.2-0.7,0.4-1
			s0.5-0.5,0.9-0.7s0.8-0.2,1.2-0.2c0.8,0,1.5,0.2,1.8,0.7c0.4,0.4,0.6,1,0.6,1.8v3.7h-0.9l-0.1-0.9h0c-0.2,0.3-0.4,0.5-0.7,0.8
			C175.8,294.4,175.4,294.5,174.8,294.5z M175,293.6c0.4,0,0.7-0.1,1-0.3c0.3-0.2,0.5-0.4,0.6-0.7c0.1-0.3,0.2-0.6,0.2-1h-1.5
			c-0.5,0-0.9,0.1-1.2,0.3c-0.2,0.2-0.3,0.4-0.3,0.7c0,0.3,0.1,0.6,0.3,0.7C174.3,293.5,174.6,293.6,175,293.6z"/>
		<path class="st2" d="M243.1,95.7c-0.6,0-1.1-0.1-1.5-0.3c-0.4-0.2-0.7-0.5-1-0.9c-0.2-0.4-0.4-0.8-0.4-1.3h1
			c0.1,0.5,0.3,0.8,0.6,1.1c0.3,0.3,0.8,0.4,1.3,0.4c0.6,0,1.1-0.2,1.4-0.6c0.3-0.4,0.5-0.9,0.5-1.5s-0.2-1.1-0.5-1.5
			c-0.4-0.4-0.8-0.5-1.4-0.5c-0.4,0-0.8,0.1-1.2,0.3c-0.3,0.2-0.6,0.5-0.8,0.8h-1l0.7-4.6h4.5V88h-3.7l-0.4,2.5h0.1
			c0.2-0.2,0.4-0.4,0.7-0.5c0.3-0.2,0.7-0.2,1.1-0.2c0.6,0,1,0.1,1.4,0.4c0.4,0.2,0.7,0.6,1,1c0.2,0.4,0.3,0.9,0.3,1.5
			c0,0.5-0.1,1-0.3,1.5c-0.2,0.4-0.6,0.8-1,1.1C244.2,95.6,243.7,95.7,243.1,95.7z M250.3,95.7c-0.6,0-1.1-0.1-1.5-0.3
			c-0.4-0.2-0.7-0.5-1-0.9c-0.2-0.4-0.4-0.8-0.4-1.3h1c0.1,0.5,0.3,0.8,0.6,1.1c0.3,0.3,0.8,0.4,1.3,0.4c0.6,0,1.1-0.2,1.4-0.6
			c0.3-0.4,0.5-0.9,0.5-1.5s-0.2-1.1-0.5-1.5c-0.4-0.4-0.8-0.5-1.4-0.5c-0.4,0-0.8,0.1-1.2,0.3c-0.3,0.2-0.6,0.5-0.8,0.8h-1l0.7-4.6
			h4.5V88h-3.7l-0.4,2.5h0.1c0.2-0.2,0.4-0.4,0.7-0.5c0.3-0.2,0.7-0.2,1.1-0.2c0.6,0,1,0.1,1.4,0.4c0.4,0.2,0.7,0.6,1,1
			c0.2,0.4,0.3,0.9,0.3,1.5c0,0.5-0.1,1-0.3,1.5c-0.2,0.4-0.6,0.8-1,1.1C251.4,95.6,250.9,95.7,250.3,95.7z"/>
		<path class="st2" d="M244.4,132.5v-1.9h-4v-0.8l3.8-5.7h1.2v5.5h1.2v0.9h-1.2v1.9h-1V132.5z M241.5,129.6h2.9v-4.4L241.5,129.6z
			 M250.5,132.6c-0.6,0-1.2-0.2-1.7-0.5c-0.5-0.4-0.9-0.9-1.1-1.5c-0.3-0.6-0.4-1.4-0.4-2.3c0-0.9,0.1-1.7,0.4-2.3
			c0.3-0.6,0.6-1.1,1.1-1.5s1-0.5,1.7-0.5c0.6,0,1.2,0.2,1.7,0.5c0.5,0.4,0.9,0.9,1.1,1.5c0.3,0.6,0.4,1.4,0.4,2.3
			c0,0.9-0.1,1.7-0.4,2.3c-0.3,0.6-0.6,1.1-1.1,1.5S251.2,132.6,250.5,132.6z M248.3,128.3c0,0.5,0.1,1,0.2,1.5
			c0.1,0.4,0.3,0.8,0.5,1.1l2.3-5.8c-0.2-0.1-0.5-0.2-0.8-0.2c-0.4,0-0.8,0.1-1.1,0.4s-0.6,0.7-0.8,1.2
			C248.4,127,248.3,127.6,248.3,128.3z M250.5,131.7c0.4,0,0.8-0.1,1.1-0.4c0.3-0.3,0.6-0.7,0.8-1.2s0.3-1.1,0.3-1.8
			c0-0.5-0.1-1-0.2-1.5c-0.1-0.4-0.3-0.8-0.5-1.1l-2.3,5.8C249.9,131.6,250.2,131.7,250.5,131.7z"/>
		<path class="st2" d="M243.5,174.9c-0.6,0-1.1-0.1-1.5-0.3s-0.7-0.5-1-0.9c-0.2-0.4-0.4-0.8-0.4-1.3s0.1-1,0.4-1.3
			c0.3-0.4,0.6-0.6,1-0.8v-0.1c-0.4-0.2-0.6-0.4-0.9-0.7c-0.2-0.3-0.3-0.7-0.3-1.1c0-0.4,0.1-0.8,0.3-1.1s0.5-0.6,0.9-0.8
			s0.8-0.3,1.4-0.3c0.5,0,1,0.1,1.3,0.3c0.4,0.2,0.7,0.5,0.9,0.8s0.3,0.7,0.3,1.1c0,0.4-0.1,0.8-0.3,1.1s-0.5,0.6-0.8,0.7v0.1
			c0.4,0.1,0.7,0.4,1,0.8c0.3,0.4,0.4,0.8,0.4,1.3s-0.1,0.9-0.4,1.3c-0.2,0.4-0.6,0.7-1,0.9C244.6,174.8,244.1,174.9,243.5,174.9z
			 M243.5,169.9c0.5,0,0.9-0.1,1.2-0.4c0.3-0.3,0.4-0.6,0.4-1s-0.1-0.7-0.4-1c-0.3-0.3-0.7-0.4-1.2-0.4s-0.9,0.1-1.2,0.4
			c-0.3,0.3-0.4,0.6-0.4,1s0.1,0.8,0.4,1C242.6,169.8,243,169.9,243.5,169.9z M243.5,174c0.5,0,1-0.1,1.3-0.4
			c0.3-0.3,0.5-0.7,0.5-1.2s-0.2-0.9-0.5-1.2s-0.8-0.4-1.3-0.4s-1,0.1-1.3,0.4c-0.3,0.3-0.5,0.7-0.5,1.2s0.2,0.9,0.5,1.2
			C242.5,173.8,243,174,243.5,174z M250.6,174.9c-0.5,0-1-0.1-1.4-0.3s-0.7-0.5-0.9-0.8c-0.2-0.4-0.4-0.7-0.4-1.2h1
			c0.1,0.4,0.3,0.8,0.6,1s0.7,0.4,1.2,0.4c0.6,0,1.1-0.3,1.5-0.9c0.4-0.6,0.6-1.5,0.7-2.7h-0.1c-0.2,0.4-0.5,0.7-0.8,0.9
			s-0.8,0.4-1.4,0.4c-0.5,0-1-0.1-1.4-0.3s-0.7-0.6-1-1c-0.2-0.4-0.3-0.9-0.3-1.4s0.1-1,0.3-1.4s0.6-0.8,1-1
			c0.4-0.3,0.9-0.4,1.5-0.4c1.1,0,1.8,0.4,2.4,1.1c0.5,0.7,0.8,1.7,0.8,2.9c0,0.9-0.1,1.7-0.4,2.4c-0.2,0.7-0.6,1.2-1.1,1.6
			C251.8,174.7,251.3,174.9,250.6,174.9z M250.7,170.8c0.6,0,1-0.2,1.3-0.5c0.3-0.4,0.5-0.8,0.5-1.3s-0.2-1-0.5-1.3
			c-0.3-0.4-0.8-0.5-1.3-0.5s-1,0.2-1.3,0.5c-0.3,0.4-0.5,0.8-0.5,1.3s0.2,1,0.5,1.3S250.1,170.8,250.7,170.8z"/>
		<path class="st2" d="M242.4,212.6l3.3-7.5h-4.6v-0.9h5.6v0.8l-3.3,7.6L242.4,212.6L242.4,212.6z M248.3,212.6v-0.9h2.2v-6.3
			l-2.1,0.4V205l2.4-0.8h0.7v7.5h2.3v0.9L248.3,212.6L248.3,212.6z"/>
		<path class="st2" d="M240.9,254.1v-0.8c0.9-0.7,1.6-1.3,2.3-1.9c0.6-0.6,1.1-1.1,1.5-1.7c0.4-0.5,0.5-1.1,0.5-1.6
			s-0.1-0.9-0.4-1.2c-0.3-0.3-0.7-0.4-1.1-0.4c-0.4,0-0.7,0.1-0.9,0.2c-0.3,0.2-0.4,0.4-0.6,0.6c-0.1,0.3-0.2,0.5-0.2,0.9h-1
			c0-0.6,0.1-1,0.4-1.4c0.2-0.4,0.6-0.7,1-0.9s0.9-0.3,1.4-0.3c0.8,0,1.5,0.2,1.9,0.7c0.5,0.5,0.7,1.1,0.7,1.8c0,0.5-0.1,1-0.3,1.5
			s-0.5,0.9-0.9,1.3c-0.4,0.4-0.8,0.8-1.2,1.2s-0.9,0.8-1.4,1.1h4v0.9L240.9,254.1L240.9,254.1z M250.8,254.2
			c-0.6,0-1.2-0.2-1.7-0.5c-0.5-0.4-0.9-0.9-1.1-1.5c-0.3-0.6-0.4-1.4-0.4-2.3c0-0.9,0.1-1.7,0.4-2.3c0.3-0.6,0.6-1.1,1.1-1.5
			s1-0.5,1.7-0.5c0.6,0,1.2,0.2,1.7,0.5s0.9,0.9,1.1,1.5c0.3,0.6,0.4,1.4,0.4,2.3c0,0.9-0.1,1.7-0.4,2.3c-0.3,0.6-0.6,1.1-1.1,1.5
			C252,254,251.4,254.2,250.8,254.2z M248.6,249.9c0,0.5,0.1,1,0.2,1.5c0.1,0.4,0.3,0.8,0.5,1.1l2.3-5.8c-0.2-0.1-0.5-0.2-0.8-0.2
			c-0.4,0-0.8,0.1-1.1,0.4c-0.3,0.3-0.6,0.7-0.8,1.2C248.7,248.6,248.6,249.2,248.6,249.9z M250.8,253.3c0.4,0,0.8-0.1,1.1-0.4
			c0.3-0.3,0.6-0.7,0.8-1.2s0.3-1.1,0.3-1.8c0-0.5-0.1-1-0.2-1.5c-0.1-0.4-0.3-0.8-0.5-1.1l-2.3,5.8
			C250.2,253.2,250.5,253.3,250.8,253.3z"/>
		<path class="st2" d="M241.4,293.9v-0.8c0.9-0.7,1.6-1.3,2.3-1.9c0.6-0.6,1.1-1.1,1.5-1.7c0.4-0.5,0.5-1.1,0.5-1.6
			s-0.1-0.9-0.4-1.2c-0.3-0.3-0.7-0.4-1.1-0.4c-0.4,0-0.7,0.1-0.9,0.2c-0.3,0.2-0.4,0.4-0.6,0.6s-0.2,0.5-0.2,0.9h-1
			c0-0.6,0.1-1,0.4-1.4c0.2-0.4,0.6-0.7,1-0.9c0.4-0.2,0.9-0.3,1.4-0.3c0.8,0,1.5,0.2,1.9,0.7c0.5,0.5,0.7,1.1,0.7,1.8
			c0,0.5-0.1,1-0.3,1.5s-0.5,0.9-0.9,1.3s-0.8,0.8-1.2,1.2s-0.9,0.8-1.4,1.1h4v0.9L241.4,293.9L241.4,293.9z M251.5,294
			c-0.6,0-1-0.1-1.5-0.3c-0.4-0.2-0.8-0.5-1-0.9c-0.3-0.4-0.4-0.9-0.4-1.4h1c0,0.5,0.2,0.9,0.5,1.2c0.3,0.3,0.8,0.5,1.4,0.5
			c0.6,0,1-0.1,1.4-0.4c0.3-0.3,0.5-0.7,0.5-1.2c0-0.4-0.1-0.7-0.3-0.9c-0.2-0.2-0.4-0.4-0.7-0.5s-0.6-0.2-1-0.2h-0.7V289h0.6
			c0.5,0,1-0.1,1.3-0.3c0.3-0.2,0.5-0.6,0.5-1s-0.1-0.7-0.4-0.9c-0.3-0.2-0.6-0.4-1.1-0.4s-0.8,0.1-1.1,0.4s-0.5,0.6-0.5,1h-1
			c0-0.5,0.1-0.9,0.4-1.2c0.2-0.4,0.5-0.6,0.9-0.8c0.4-0.2,0.8-0.3,1.4-0.3c0.6,0,1,0.1,1.4,0.3c0.4,0.2,0.7,0.5,0.9,0.8
			s0.3,0.7,0.3,1.1s-0.1,0.8-0.4,1.1c-0.3,0.3-0.6,0.5-0.9,0.7v0.1c0.5,0.1,0.9,0.4,1.2,0.7c0.3,0.3,0.5,0.8,0.5,1.4
			c0,0.5-0.1,0.9-0.3,1.3s-0.6,0.7-1,0.9C252.6,293.9,252,294,251.5,294z"/>
		<path class="st2" d="M346.4,94.4v-1.9h-4v-0.8l3.8-5.7h1.2v5.5h1.2v0.9h-1.2v1.9L346.4,94.4L346.4,94.4z M343.5,91.5h2.9v-4.4
			L343.5,91.5z"/>
		<path class="st2" d="M476.3,94.4v-1.9h-4v-0.8l3.8-5.7h1.2v5.5h1.2v0.9h-1.2v1.9L476.3,94.4L476.3,94.4z M473.4,91.6h2.9v-4.4
			L473.4,91.6z"/>
	</g>
	<line class="st3" x1="34" y1="65.5" x2="524" y2="65.5"/>
	<path class="st4" d="M651.6,397.1H291c-5.7,0-10.4-4.7-10.4-10.4V112.2c0-5.7,4.7-10.4,10.4-10.4h360.6c5.7,0,10.4,4.7,10.4,10.4
		v274.5C662,392.5,657.3,397.1,651.6,397.1z"/>
</g>
<g id="Layer_3">
	<g>
		
			<linearGradient id="SVGID_1_" gradientUnits="userSpaceOnUse" x1="442.7057" y1="495.4149" x2="499.7058" y2="679.4149" gradientTransform="matrix(1 0 0 1 0 -304)">
			<stop  offset="0" style="stop-color:#896AE4"/>
			<stop  offset="0.1226" style="stop-color:#866CDE"/>
			<stop  offset="0.2939" style="stop-color:#7D71CB"/>
			<stop  offset="0.4938" style="stop-color:#6F79AE"/>
			<stop  offset="0.7154" style="stop-color:#5C8484"/>
			<stop  offset="0.9522" style="stop-color:#439350"/>
			<stop  offset="1" style="stop-color:#3E9644"/>
		</linearGradient>
		<path class="st5" d="M374.6,357.3c28.2,6.2,38.9-152.5,55.7-175.3c12.5-22.8,21.5,17.6,40,18.4c11.5,2.3,16.6-22.1,22.7-16.1
			c11.6,19.6,13.4,86.5,23,107.6c6.9,13.9,17.7,17.7,21.5-0.6c2.4-7.6,14.4-96.5,17.1-102.4c1.6-4.5,4.3-9.2,6.8,0
			c5.5,23.2,34,170.4,43.2,168.5L374.6,357.3z"/>
		<path class="st6" d="M350.1,357.4h283.2"/>
		<path class="st6" d="M350.5,149.5v208"/>
		<path class="st2" d="M420,382v-7.4h1.1l0.1,1.1h0.1c0.2-0.4,0.5-0.7,0.9-0.9c0.4-0.3,0.9-0.4,1.5-0.4c0.9,0,1.6,0.3,2,0.8
			c0.5,0.5,0.7,1.3,0.7,2.3v4.5h-1.3v-4.3c0-0.7-0.1-1.2-0.4-1.5c-0.3-0.4-0.7-0.6-1.4-0.6c-0.6,0-1.1,0.2-1.5,0.6s-0.6,1-0.6,1.7
			v4.1L420,382L420,382z M431.6,382.1c-0.9,0-1.6-0.3-2-0.8c-0.5-0.5-0.7-1.3-0.7-2.3v-4.5h1.3v4.3c0,0.7,0.1,1.2,0.4,1.6
			s0.8,0.6,1.4,0.6s1.1-0.2,1.5-0.6s0.6-1,0.6-1.8v-4.1h1.3v7.4h-1l-0.1-1.1h-0.1c-0.2,0.4-0.5,0.7-0.9,0.9
			C432.7,382,432.2,382.1,431.6,382.1z M437.2,382v-7.4h1l0.1,0.9h0.1c0.1-0.3,0.3-0.5,0.6-0.8c0.3-0.2,0.6-0.3,1-0.3s0.7,0.1,1,0.3
			c0.3,0.2,0.5,0.4,0.6,0.8h0.1c0.1-0.3,0.3-0.5,0.6-0.8c0.3-0.2,0.6-0.3,1.1-0.3c0.6,0,1,0.2,1.3,0.6s0.4,0.9,0.4,1.5v5.5h-1.2
			v-5.3c0-0.4-0.1-0.6-0.2-0.9c-0.1-0.2-0.4-0.3-0.7-0.3c-0.3,0-0.6,0.1-0.8,0.4c-0.2,0.2-0.3,0.6-0.3,1.1v5h-1.2v-5.3
			c0-0.4-0.1-0.6-0.2-0.9c-0.1-0.2-0.4-0.3-0.7-0.3c-0.3,0-0.6,0.1-0.8,0.4c-0.2,0.2-0.3,0.6-0.3,1.1v5L437.2,382L437.2,382z
			 M450.4,382.1c-0.6,0-1.1-0.1-1.5-0.3c-0.4-0.2-0.7-0.6-0.9-1l0,0l-0.1,1.1h-1v-10.8h1.3v4.4c0.2-0.3,0.5-0.6,0.9-0.9
			c0.4-0.2,0.9-0.4,1.4-0.4c0.6,0,1.2,0.2,1.7,0.5s0.9,0.7,1.2,1.3s0.4,1.3,0.4,2.1c0,0.8-0.1,1.6-0.4,2.1c-0.3,0.6-0.7,1-1.2,1.3
			C451.6,382,451,382.1,450.4,382.1z M450.2,380.9c0.6,0,1.1-0.2,1.5-0.7s0.6-1.1,0.6-2s-0.2-1.6-0.6-2c-0.4-0.5-0.9-0.7-1.5-0.7
			s-1.1,0.2-1.6,0.7c-0.4,0.4-0.6,1.1-0.6,2s0.2,1.6,0.6,2C449.1,380.7,449.6,380.9,450.2,380.9z M459.2,382.1
			c-0.7,0-1.3-0.2-1.9-0.5c-0.5-0.3-0.9-0.8-1.3-1.4c-0.3-0.6-0.5-1.3-0.5-2.1c0-0.8,0.2-1.5,0.5-2c0.3-0.6,0.7-1,1.3-1.4
			c0.5-0.3,1.2-0.5,1.9-0.5s1.3,0.2,1.8,0.5s0.9,0.7,1.2,1.3c0.3,0.5,0.4,1.1,0.4,1.7c0,0.1,0,0.2,0,0.3c0,0.1,0,0.2,0,0.4h-5.8
			c0,0.5,0.2,1,0.4,1.4c0.2,0.4,0.5,0.6,0.9,0.8c0.4,0.2,0.7,0.3,1.1,0.3c0.5,0,1-0.1,1.3-0.3c0.3-0.2,0.5-0.5,0.7-1h1.2
			c-0.2,0.7-0.5,1.3-1.1,1.8C460.9,381.9,460.1,382.1,459.2,382.1z M459.2,375.5c-0.6,0-1.1,0.2-1.5,0.5s-0.7,0.8-0.8,1.5h4.5
			c0-0.6-0.3-1.1-0.7-1.5C460.3,375.7,459.8,375.5,459.2,375.5z M464.9,382v-1.1h1.9V376c0-0.2-0.1-0.4-0.4-0.4h-1.3v-1.1h1.8
			c0.3,0,0.6,0.1,0.8,0.3c0.2,0.2,0.3,0.4,0.3,0.8v0.3h0.1c0.1-0.5,0.3-0.9,0.7-1.2c0.3-0.3,0.8-0.4,1.4-0.4h1.4v1.3H470
			c-0.6,0-1.1,0.2-1.4,0.6s-0.5,0.9-0.5,1.5v3h2.3v1.1h-5.5V382z M486.1,382.1c-0.7,0-1.3-0.2-1.9-0.5c-0.5-0.3-1-0.8-1.3-1.3
			c-0.3-0.6-0.5-1.3-0.5-2.1c0-0.8,0.2-1.5,0.5-2.1s0.7-1,1.3-1.4c0.5-0.3,1.2-0.5,1.9-0.5s1.3,0.2,1.9,0.5c0.5,0.3,1,0.8,1.3,1.4
			s0.5,1.3,0.5,2.1c0,0.8-0.2,1.5-0.5,2.1s-0.7,1-1.3,1.3C487.4,382,486.8,382.1,486.1,382.1z M486.1,380.9c0.4,0,0.8-0.1,1.2-0.3
			c0.3-0.2,0.6-0.5,0.8-0.9c0.2-0.4,0.3-0.9,0.3-1.5s-0.1-1.1-0.3-1.5c-0.2-0.4-0.5-0.7-0.8-0.9c-0.4-0.2-0.7-0.3-1.2-0.3
			c-0.4,0-0.8,0.1-1.2,0.3s-0.6,0.5-0.8,0.9c-0.2,0.4-0.3,0.9-0.3,1.5c0,0.9,0.2,1.6,0.7,2.1C484.9,380.7,485.5,380.9,486.1,380.9z
			 M492,385.3v-1.2h0.9c0.4,0,0.6-0.1,0.8-0.2c0.2-0.1,0.2-0.4,0.2-0.8v-7.5h-1.8v-1.1h1.8v-1.2c0-0.8,0.2-1.3,0.6-1.7
			c0.4-0.3,0.9-0.5,1.7-0.5h1.8v1.1h-1.7c-0.4,0-0.6,0.1-0.8,0.2c-0.2,0.2-0.2,0.4-0.2,0.8v1.2h2.8v1.1h-2.8v7.5
			c0,0.8-0.2,1.3-0.6,1.7c-0.4,0.3-0.9,0.5-1.7,0.5h-1V385.3z M509.9,382v-1.1h1.9V376c0-0.2-0.1-0.4-0.4-0.4h-1.3v-1.1h1.8
			c0.3,0,0.6,0.1,0.8,0.3c0.2,0.2,0.3,0.4,0.3,0.8v0.3h0.1c0.1-0.5,0.3-0.9,0.7-1.2c0.3-0.3,0.8-0.4,1.4-0.4h1.4v1.3h-1.5
			c-0.6,0-1.1,0.2-1.4,0.6c-0.3,0.4-0.5,0.9-0.5,1.5v3h2.3v1.1h-5.6V382z M522.2,382.1c-0.7,0-1.3-0.2-1.9-0.5
			c-0.5-0.3-1-0.8-1.3-1.4s-0.5-1.3-0.5-2.1c0-0.8,0.2-1.5,0.5-2c0.3-0.6,0.7-1,1.3-1.4c0.5-0.3,1.2-0.5,1.9-0.5s1.3,0.2,1.8,0.5
			s0.9,0.7,1.2,1.3c0.3,0.5,0.4,1.1,0.4,1.7c0,0.1,0,0.2,0,0.3c0,0.1,0,0.2,0,0.4h-5.8c0,0.5,0.2,1,0.4,1.4s0.5,0.6,0.9,0.8
			c0.3,0.2,0.7,0.3,1.1,0.3c0.5,0,1-0.1,1.3-0.3c0.3-0.2,0.5-0.5,0.7-1h1.2c-0.2,0.7-0.5,1.3-1.1,1.8
			C523.8,381.9,523.1,382.1,522.2,382.1z M522.2,375.5c-0.6,0-1.1,0.2-1.5,0.5s-0.7,0.8-0.8,1.5h4.5c0-0.6-0.3-1.1-0.7-1.5
			C523.3,375.7,522.8,375.5,522.2,375.5z M530.4,382l-3.3-7.4h1.4l2.6,6.1l2.6-6.1h1.4l-3.3,7.4H530.4z M540,373.2
			c-0.3,0-0.5-0.1-0.8-0.3c-0.2-0.2-0.3-0.4-0.3-0.7c0-0.3,0.1-0.5,0.3-0.7s0.5-0.3,0.8-0.3s0.5,0.1,0.7,0.3
			c0.2,0.2,0.3,0.4,0.3,0.7c0,0.3-0.1,0.5-0.3,0.7C540.5,373.1,540.3,373.2,540,373.2z M537.1,382v-1.1h2.4V376
			c0-0.2-0.1-0.4-0.4-0.4h-1.7v-1.1h2c0.9,0,1.3,0.4,1.3,1.3v5h2.4v1.1h-6V382z M549.2,382.1c-0.7,0-1.3-0.2-1.9-0.5
			c-0.5-0.3-0.9-0.8-1.3-1.4c-0.3-0.6-0.5-1.3-0.5-2.1c0-0.8,0.2-1.5,0.5-2c0.3-0.6,0.7-1,1.3-1.4c0.5-0.3,1.2-0.5,1.9-0.5
			s1.3,0.2,1.8,0.5s0.9,0.7,1.2,1.3c0.3,0.5,0.4,1.1,0.4,1.7c0,0.1,0,0.2,0,0.3c0,0.1,0,0.2,0,0.4h-5.8c0,0.5,0.2,1,0.4,1.4
			s0.5,0.6,0.9,0.8c0.4,0.2,0.7,0.3,1.1,0.3c0.5,0,1-0.1,1.3-0.3c0.3-0.2,0.5-0.5,0.7-1h1.2c-0.2,0.7-0.5,1.3-1.1,1.8
			C550.8,381.9,550.1,382.1,549.2,382.1z M549.2,375.5c-0.6,0-1.1,0.2-1.5,0.5s-0.7,0.8-0.8,1.5h4.5c0-0.6-0.3-1.1-0.7-1.5
			C550.3,375.7,549.8,375.5,549.2,375.5z M555.4,382l-1.7-7.4h1.2l1.1,5.6l1.3-5.6h1.4l1.3,5.6l1.1-5.6h1.3l-1.7,7.4h-1.3l-1.4-5.8
			l-1.3,5.8H555.4z M567.1,382.1c-1,0-1.7-0.2-2.3-0.7s-0.9-1.1-1-1.8h1.3c0.1,0.4,0.3,0.7,0.6,1s0.8,0.4,1.4,0.4
			c0.6,0,1-0.1,1.2-0.4c0.3-0.2,0.4-0.5,0.4-0.8c0-0.4-0.2-0.7-0.5-0.9c-0.3-0.2-0.8-0.3-1.5-0.4c-0.8-0.1-1.4-0.3-2-0.6
			c-0.5-0.3-0.8-0.9-0.8-1.5s0.3-1.1,0.8-1.5s1.2-0.6,2.1-0.6c0.9,0,1.6,0.2,2.1,0.6s0.8,0.9,0.9,1.7h-1.2c0-0.4-0.2-0.6-0.5-0.9
			c-0.3-0.2-0.7-0.3-1.2-0.3s-0.9,0.1-1.1,0.3c-0.3,0.2-0.4,0.4-0.4,0.7c0,0.3,0.2,0.5,0.5,0.8c0.3,0.2,0.8,0.3,1.5,0.4
			c0.5,0.1,1,0.2,1.4,0.3c0.4,0.1,0.8,0.4,1,0.7c0.3,0.3,0.4,0.7,0.4,1.3c0,0.5-0.1,0.9-0.4,1.2c-0.2,0.3-0.6,0.6-1,0.8
			C568.3,382,567.7,382.1,567.1,382.1z"/>
		<path class="st2" d="M329.4,280.6c0,0.6-0.1,1.2-0.5,1.7c-0.3,0.5-0.7,0.9-1.3,1.2c-0.6,0.3-1.3,0.4-2.1,0.4
			c-0.8,0-1.5-0.1-2.1-0.4s-1-0.7-1.3-1.2s-0.5-1.1-0.5-1.7s0.1-1.1,0.3-1.5c0.2-0.4,0.5-0.7,0.9-0.9h-4.4V277h10.8v1l-1.2,0.1v0.1
			c0.4,0.2,0.7,0.5,1,0.9C329.3,279.5,329.4,280,329.4,280.6z M328.2,280.4c0-0.6-0.2-1.1-0.7-1.6c-0.4-0.4-1.1-0.6-2-0.6
			s-1.6,0.2-2,0.6s-0.7,0.9-0.7,1.6s0.2,1.2,0.7,1.6c0.4,0.4,1.1,0.6,2,0.6s1.6-0.2,2-0.6C328,281.5,328.2,281,328.2,280.4z
			 M329.4,271.2c0,0.7-0.2,1.3-0.5,1.9c-0.3,0.5-0.8,1-1.4,1.3s-1.3,0.5-2.1,0.5c-0.8,0-1.5-0.2-2-0.5c-0.6-0.3-1-0.7-1.4-1.3
			c-0.3-0.5-0.5-1.2-0.5-1.9c0-0.7,0.2-1.3,0.5-1.8s0.7-0.9,1.3-1.2s1.1-0.4,1.7-0.4c0.1,0,0.2,0,0.3,0c0.1,0,0.2,0,0.4,0v5.8
			c0.6,0,1-0.2,1.4-0.4c0.4-0.2,0.6-0.5,0.8-0.9c0.2-0.3,0.3-0.7,0.3-1.1c0-0.5-0.1-1-0.3-1.3c-0.2-0.3-0.6-0.5-1-0.7V268
			c0.7,0.2,1.3,0.5,1.8,1.1C329.2,269.6,329.4,270.3,329.4,271.2z M322.7,271.2c0,0.6,0.2,1.1,0.5,1.5s0.8,0.7,1.5,0.8V269
			c-0.6,0-1.1,0.3-1.5,0.7C322.9,270.1,322.7,270.6,322.7,271.2z M329.2,265.5h-7.4v-1l1.1-0.1v-0.1c-0.4-0.2-0.7-0.5-0.9-0.9
			c-0.3-0.4-0.4-0.9-0.4-1.5c0-0.9,0.3-1.6,0.8-2c0.5-0.5,1.3-0.7,2.3-0.7h4.5v1.3h-4.3c-0.7,0-1.2,0.1-1.5,0.4
			c-0.4,0.3-0.6,0.7-0.6,1.3c0,0.6,0.2,1.1,0.6,1.5s1,0.6,1.7,0.6h4.1L329.2,265.5L329.2,265.5z M329.4,253.2c0,1-0.2,1.7-0.7,2.3
			s-1.1,0.9-1.8,1v-1.3c0.4-0.1,0.7-0.3,1-0.6c0.3-0.4,0.4-0.8,0.4-1.4c0-0.6-0.1-1-0.4-1.2c-0.2-0.3-0.5-0.4-0.8-0.4
			c-0.4,0-0.7,0.2-0.9,0.5c-0.2,0.3-0.3,0.8-0.4,1.5c-0.1,0.8-0.3,1.4-0.6,2c-0.3,0.5-0.9,0.8-1.5,0.8s-1.1-0.3-1.5-0.8
			c-0.4-0.5-0.6-1.2-0.6-2.1c0-0.9,0.2-1.6,0.6-2.1s1-0.8,1.7-0.9v1.2c-0.4,0-0.6,0.2-0.9,0.5c-0.2,0.3-0.3,0.7-0.3,1.2
			s0.1,0.9,0.3,1.1c0.2,0.3,0.4,0.4,0.7,0.4c0.3,0,0.6-0.1,0.8-0.4c0.2-0.3,0.3-0.8,0.4-1.5c0.1-0.5,0.2-1,0.3-1.4
			c0.1-0.4,0.4-0.8,0.7-1c0.3-0.3,0.7-0.4,1.3-0.4c0.5,0,0.9,0.1,1.2,0.4c0.4,0.2,0.6,0.6,0.8,1.1
			C329.3,252.1,329.4,252.7,329.4,253.2z M320.5,244.4c0,0.3-0.1,0.6-0.3,0.8c-0.2,0.2-0.4,0.3-0.7,0.3c-0.3,0-0.5-0.1-0.7-0.3
			s-0.3-0.4-0.3-0.8c0-0.3,0.1-0.5,0.3-0.7c0.2-0.2,0.4-0.3,0.7-0.3c0.3,0,0.5,0.1,0.7,0.3C320.4,243.9,320.5,244.1,320.5,244.4z
			 M329.2,247.3h-1.1V245h-4.9c-0.2,0-0.4,0.1-0.4,0.4v1.7h-1.1v-2c0-0.9,0.4-1.3,1.3-1.3h5v-2.4h1.1v5.9H329.2z M329.2,234.6
			c0,0.7-0.2,1.2-0.5,1.6c-0.3,0.4-0.9,0.6-1.8,0.6h-4.1v1.9h-1.1v-1.1c0-0.5-0.2-0.8-0.8-0.9l-1.2-0.2v-0.9h1.9v-3h1.1v3h4.1
			c0.4,0,0.7-0.1,0.9-0.3c0.2-0.2,0.3-0.5,0.3-1v-1.7h1.1v2H329.2z M332.5,228.6l-4-1.8v0.4l-6.7,2.9v-1.4l5.8-2.4l-5.8-2.6v-1.3
			l10.7,4.8V228.6z"/>
		<path class="st2" d="M363.3,132.8v-10.5h3.2c0.8,0,1.5,0.1,2,0.4s0.9,0.6,1.2,1.1c0.3,0.5,0.4,1,0.4,1.6c0,0.7-0.2,1.3-0.5,1.8
			c-0.4,0.5-0.9,0.9-1.6,1.1l2.3,4.5h-1.5l-2.1-4.3h-0.1h-2v4.3H363.3z M364.5,127.3h1.9c0.8,0,1.4-0.2,1.8-0.5
			c0.4-0.4,0.6-0.8,0.6-1.4s-0.2-1.1-0.6-1.4s-1-0.5-1.8-0.5h-1.9V127.3z M375.6,132.9c-0.7,0-1.3-0.2-1.9-0.5
			c-0.5-0.3-1-0.8-1.3-1.4c-0.3-0.6-0.5-1.3-0.5-2.1s0.1-1.5,0.4-2c0.3-0.6,0.7-1,1.3-1.4c0.5-0.3,1.2-0.5,1.9-0.5s1.3,0.2,1.8,0.5
			s0.9,0.7,1.2,1.3c0.3,0.5,0.4,1.1,0.4,1.7c0,0.1,0,0.2,0,0.3s0,0.2,0,0.4h-5.8c0,0.6,0.2,1,0.4,1.4c0.2,0.4,0.5,0.6,0.9,0.8
			c0.3,0.2,0.7,0.3,1.1,0.3c0.5,0,1-0.1,1.3-0.3s0.5-0.5,0.7-1h1.2c-0.2,0.7-0.5,1.3-1.1,1.8C377.2,132.7,376.5,132.9,375.6,132.9z
			 M375.6,126.3c-0.6,0-1.1,0.2-1.5,0.5c-0.4,0.4-0.7,0.8-0.8,1.5h4.5c0-0.6-0.3-1.1-0.7-1.5C376.7,126.4,376.2,126.3,375.6,126.3z
			 M383.8,132.8l-3.3-7.4h1.4l2.6,6.1l2.6-6.1h1.4l-3.3,7.4H383.8z M393.4,124c-0.3,0-0.6-0.1-0.8-0.3c-0.2-0.2-0.3-0.4-0.3-0.7
			c0-0.3,0.1-0.5,0.3-0.7c0.2-0.2,0.4-0.3,0.8-0.3c0.3,0,0.5,0.1,0.7,0.3c0.2,0.2,0.3,0.4,0.3,0.7c0,0.3-0.1,0.5-0.3,0.7
			C394,123.9,393.7,124,393.4,124z M390.5,132.8v-1.1h2.4v-4.9c0-0.2-0.1-0.4-0.4-0.4h-1.7v-1.1h2c0.9,0,1.3,0.4,1.3,1.3v5h2.4v1.1
			L390.5,132.8L390.5,132.8z M402.6,132.9c-0.7,0-1.3-0.2-1.9-0.5c-0.5-0.3-1-0.8-1.3-1.4c-0.3-0.6-0.5-1.3-0.5-2.1s0.1-1.5,0.4-2
			c0.3-0.6,0.7-1,1.3-1.4c0.5-0.3,1.2-0.5,1.9-0.5s1.3,0.2,1.8,0.5s0.9,0.7,1.2,1.3c0.3,0.5,0.4,1.1,0.4,1.7c0,0.1,0,0.2,0,0.3
			s0,0.2,0,0.4h-5.8c0,0.6,0.2,1,0.4,1.4c0.2,0.4,0.5,0.6,0.9,0.8c0.3,0.2,0.7,0.3,1.1,0.3c0.5,0,1-0.1,1.3-0.3s0.5-0.5,0.7-1h1.2
			c-0.2,0.7-0.5,1.3-1.1,1.8C404.2,132.7,403.5,132.9,402.6,132.9z M402.6,126.3c-0.6,0-1.1,0.2-1.5,0.5c-0.4,0.4-0.7,0.8-0.8,1.5
			h4.5c0-0.6-0.3-1.1-0.7-1.5C403.7,126.4,403.2,126.3,402.6,126.3z M408.9,132.8l-1.6-7.4h1.2l1.1,5.6l1.3-5.6h1.4l1.3,5.6l1.1-5.6
			h1.3l-1.7,7.4H413l-1.4-5.8l-1.4,5.8H408.9z M429.6,132.9c-0.9,0-1.6-0.2-2.2-0.7s-1.1-1.1-1.4-1.9c-0.3-0.8-0.5-1.8-0.5-2.9
			s0.2-2,0.5-2.9c0.3-0.8,0.8-1.5,1.4-1.9s1.4-0.7,2.2-0.7c1.1,0,2,0.3,2.6,0.9c0.7,0.6,1,1.4,1.2,2.4H432c-0.1-0.6-0.3-1.1-0.8-1.5
			c-0.4-0.4-0.9-0.6-1.6-0.6c-0.9,0-1.6,0.4-2.1,1.1c-0.5,0.8-0.8,1.8-0.8,3.1c0,1.3,0.2,2.4,0.8,3.1s1.2,1.1,2.1,1.1
			c0.7,0,1.3-0.2,1.6-0.6c0.4-0.4,0.6-0.9,0.7-1.5h1.4c-0.2,1-0.6,1.8-1.2,2.4C431.5,132.7,430.6,132.9,429.6,132.9z M438.5,132.9
			c-0.7,0-1.3-0.2-1.9-0.5c-0.5-0.3-1-0.8-1.3-1.3c-0.3-0.6-0.5-1.3-0.5-2.1s0.2-1.5,0.5-2.1s0.7-1,1.3-1.4c0.5-0.3,1.2-0.5,1.9-0.5
			s1.3,0.2,1.9,0.5c0.5,0.3,1,0.8,1.3,1.4s0.5,1.3,0.5,2.1s-0.2,1.5-0.5,2.1s-0.7,1-1.3,1.3C439.8,132.8,439.2,132.9,438.5,132.9z
			 M438.5,131.7c0.4,0,0.8-0.1,1.2-0.3c0.3-0.2,0.6-0.5,0.8-0.9c0.2-0.4,0.3-0.9,0.3-1.5s-0.1-1.1-0.3-1.5c-0.2-0.4-0.5-0.7-0.8-0.9
			c-0.4-0.2-0.7-0.3-1.2-0.3c-0.4,0-0.8,0.1-1.2,0.3c-0.4,0.2-0.6,0.5-0.8,0.9s-0.3,0.9-0.3,1.5c0,0.9,0.2,1.6,0.7,2.1
			C437.3,131.5,437.8,131.7,438.5,131.7z M447,132.9c-0.9,0-1.6-0.3-2-0.8c-0.5-0.5-0.7-1.3-0.7-2.3v-4.5h1.3v4.3
			c0,0.7,0.1,1.2,0.4,1.6c0.3,0.4,0.8,0.6,1.4,0.6s1.1-0.2,1.5-0.6c0.4-0.4,0.6-1,0.6-1.8v-4.1h1.3v7.4h-1l-0.1-1.1h-0.1
			c-0.2,0.4-0.5,0.7-0.9,0.9C448,132.8,447.5,132.9,447,132.9z M453.3,132.8v-7.4h1.1l0.1,1.1h0.1c0.2-0.4,0.5-0.7,0.9-0.9
			c0.4-0.3,0.9-0.4,1.5-0.4c0.9,0,1.6,0.3,2,0.8c0.5,0.5,0.7,1.3,0.7,2.3v4.5h-1.3v-4.3c0-0.7-0.1-1.2-0.4-1.5
			c-0.3-0.4-0.7-0.6-1.4-0.6c-0.6,0-1.1,0.2-1.5,0.6s-0.6,1-0.6,1.7v4.1H453.3z M466.2,132.8c-0.7,0-1.2-0.2-1.6-0.5
			s-0.6-0.9-0.6-1.8v-4.1h-1.9v-1.1h1.1c0.5,0,0.8-0.2,0.9-0.8l0.2-1.2h0.9v1.9h3v1.1h-3v4.1c0,0.4,0.1,0.7,0.3,0.9
			c0.2,0.2,0.5,0.3,1,0.3h1.7v1.1L466.2,132.8L466.2,132.8z M479.9,132.8v-10.5h2.2c1.7,0,3,0.5,3.8,1.4s1.2,2.2,1.2,3.8
			c0,1.6-0.4,2.9-1.2,3.8c-0.8,0.9-2.1,1.4-3.8,1.4h-2.2V132.8z M481.2,131.6h0.9c0.9,0,1.7-0.2,2.2-0.5c0.6-0.3,1-0.8,1.2-1.4
			s0.4-1.3,0.4-2.2s-0.1-1.6-0.4-2.2s-0.7-1.1-1.2-1.4c-0.6-0.3-1.3-0.5-2.2-0.5h-0.9V131.6z M492.4,124c-0.3,0-0.5-0.1-0.8-0.3
			s-0.3-0.4-0.3-0.7c0-0.3,0.1-0.5,0.3-0.7c0.2-0.2,0.5-0.3,0.8-0.3s0.5,0.1,0.7,0.3c0.2,0.2,0.3,0.4,0.3,0.7c0,0.3-0.1,0.5-0.3,0.7
			C492.9,123.9,492.7,124,492.4,124z M489.5,132.8v-1.1h2.4v-4.9c0-0.2-0.1-0.4-0.4-0.4h-1.7v-1.1h2c0.9,0,1.3,0.4,1.3,1.3v5h2.4
			v1.1L489.5,132.8L489.5,132.8z M501.5,132.9c-1,0-1.7-0.2-2.3-0.7c-0.6-0.4-0.9-1.1-1-1.8h1.3c0.1,0.4,0.3,0.7,0.6,1
			c0.4,0.3,0.8,0.4,1.4,0.4s1-0.1,1.2-0.4c0.3-0.2,0.4-0.5,0.4-0.8c0-0.4-0.2-0.7-0.5-0.9s-0.8-0.3-1.5-0.4c-0.8-0.1-1.4-0.3-2-0.6
			c-0.5-0.3-0.8-0.8-0.8-1.5c0-0.6,0.3-1.1,0.8-1.5s1.2-0.6,2.1-0.6s1.6,0.2,2.1,0.6s0.8,0.9,0.9,1.7H503c0-0.4-0.2-0.6-0.5-0.9
			c-0.3-0.2-0.7-0.3-1.2-0.3s-0.9,0.1-1.1,0.3c-0.3,0.2-0.4,0.4-0.4,0.7s0.1,0.6,0.5,0.8c0.3,0.2,0.8,0.3,1.5,0.4
			c0.5,0.1,1,0.2,1.4,0.3s0.8,0.4,1,0.7c0.3,0.3,0.4,0.7,0.4,1.3c0,0.4-0.1,0.9-0.4,1.2c-0.2,0.4-0.6,0.6-1.1,0.8
			C502.6,132.8,502.1,132.9,501.5,132.9z M511.2,132.8c-0.7,0-1.2-0.2-1.6-0.5s-0.6-0.9-0.6-1.8v-4.1h-1.9v-1.1h1.1
			c0.5,0,0.8-0.2,0.9-0.8l0.2-1.2h0.9v1.9h3v1.1h-3v4.1c0,0.4,0.1,0.7,0.3,0.9c0.2,0.2,0.5,0.3,1,0.3h1.7v1.1L511.2,132.8
			L511.2,132.8z M516.2,132.8v-1.1h1.9v-4.9c0-0.2-0.1-0.4-0.4-0.4h-1.3v-1.1h1.8c0.3,0,0.6,0.1,0.8,0.3c0.2,0.2,0.3,0.4,0.3,0.8
			v0.3h0.1c0.1-0.5,0.3-0.9,0.7-1.2c0.3-0.3,0.8-0.4,1.4-0.4h1.4v1.3h-1.5c-0.6,0-1.1,0.2-1.4,0.6c-0.3,0.4-0.5,0.9-0.5,1.5v3h2.3
			v1.1h-5.6V132.8z M528.3,124c-0.3,0-0.5-0.1-0.8-0.3s-0.3-0.4-0.3-0.7c0-0.3,0.1-0.5,0.3-0.7s0.5-0.3,0.8-0.3s0.5,0.1,0.7,0.3
			c0.2,0.2,0.3,0.4,0.3,0.7c0,0.3-0.1,0.5-0.3,0.7C528.9,123.9,528.6,124,528.3,124z M525.4,132.8v-1.1h2.4v-4.9
			c0-0.2-0.1-0.4-0.4-0.4h-1.7v-1.1h2c0.9,0,1.3,0.4,1.3,1.3v5h2.4v1.1L525.4,132.8L525.4,132.8z M537.7,132.9
			c-0.6,0-1.1-0.1-1.5-0.3s-0.7-0.6-0.9-1h-0.1l-0.1,1.1h-1V122h1.3v4.4c0.2-0.3,0.5-0.6,0.9-0.9c0.4-0.2,0.9-0.4,1.4-0.4
			c0.6,0,1.2,0.1,1.7,0.4s0.9,0.7,1.2,1.3c0.3,0.6,0.4,1.3,0.4,2.1s-0.1,1.6-0.4,2.1c-0.3,0.6-0.7,1-1.2,1.3
			C538.9,132.8,538.3,132.9,537.7,132.9z M537.5,131.7c0.6,0,1.1-0.2,1.5-0.7s0.6-1.1,0.6-2s-0.2-1.6-0.6-2
			c-0.4-0.5-0.9-0.7-1.5-0.7s-1.2,0.2-1.6,0.7c-0.4,0.4-0.6,1.1-0.6,2s0.2,1.6,0.6,2C536.4,131.5,536.9,131.7,537.5,131.7z
			 M545.9,132.9c-0.9,0-1.6-0.3-2-0.8c-0.5-0.5-0.7-1.3-0.7-2.3v-4.5h1.3v4.3c0,0.7,0.1,1.2,0.4,1.6c0.3,0.4,0.8,0.6,1.3,0.6
			c0.6,0,1.1-0.2,1.5-0.6c0.4-0.4,0.6-1,0.6-1.8v-4.1h1.3v7.4h-1l-0.1-1.1h-0.1c-0.2,0.4-0.5,0.7-0.9,0.9
			C547,132.8,546.5,132.9,545.9,132.9z M556.2,132.8c-0.7,0-1.2-0.2-1.6-0.5s-0.6-0.9-0.6-1.8v-4.1h-1.9v-1.1h1.1
			c0.5,0,0.8-0.2,0.9-0.8l0.2-1.2h0.9v1.9h3v1.1h-3v4.1c0,0.4,0.1,0.7,0.3,0.9s0.5,0.3,1,0.3h1.7v1.1L556.2,132.8L556.2,132.8z
			 M564.3,124c-0.3,0-0.5-0.1-0.8-0.3s-0.3-0.4-0.3-0.7c0-0.3,0.1-0.5,0.3-0.7s0.5-0.3,0.8-0.3s0.5,0.1,0.7,0.3
			c0.2,0.2,0.3,0.4,0.3,0.7c0,0.3-0.1,0.5-0.3,0.7C564.8,123.9,564.6,124,564.3,124z M561.4,132.8v-1.1h2.4v-4.9
			c0-0.2-0.1-0.4-0.4-0.4h-1.7v-1.1h2c0.9,0,1.3,0.4,1.3,1.3v5h2.4v1.1L561.4,132.8L561.4,132.8z M573.4,132.9
			c-0.7,0-1.3-0.2-1.9-0.5c-0.5-0.3-1-0.8-1.3-1.3c-0.3-0.6-0.5-1.3-0.5-2.1s0.2-1.5,0.5-2.1s0.7-1,1.3-1.4c0.5-0.3,1.2-0.5,1.9-0.5
			s1.3,0.2,1.9,0.5c0.5,0.3,1,0.8,1.3,1.4s0.5,1.3,0.5,2.1s-0.2,1.5-0.5,2.1s-0.7,1-1.3,1.3C574.7,132.8,574.1,132.9,573.4,132.9z
			 M573.4,131.7c0.4,0,0.8-0.1,1.2-0.3s0.6-0.5,0.8-0.9s0.3-0.9,0.3-1.5s-0.1-1.1-0.3-1.5s-0.5-0.7-0.8-0.9
			c-0.3-0.2-0.7-0.3-1.2-0.3c-0.4,0-0.8,0.1-1.2,0.3c-0.4,0.2-0.6,0.5-0.8,0.9s-0.3,0.9-0.3,1.5c0,0.9,0.2,1.6,0.7,2.1
			C572.2,131.5,572.8,131.7,573.4,131.7z M579.2,132.8v-7.4h1l0.1,1.1h0.1c0.2-0.4,0.5-0.7,0.9-0.9c0.4-0.3,0.9-0.4,1.5-0.4
			c0.9,0,1.6,0.3,2,0.8c0.5,0.5,0.7,1.3,0.7,2.3v4.5h-1.3v-4.3c0-0.7-0.1-1.2-0.4-1.5c-0.3-0.4-0.7-0.6-1.4-0.6
			c-0.6,0-1.1,0.2-1.5,0.6s-0.6,1-0.6,1.7v4.1H579.2z"/>
		<path class="st2" d="M379.1,370.1c-0.5,0-1-0.1-1.4-0.4s-0.7-0.7-0.9-1.2c-0.2-0.5-0.3-1.2-0.3-1.9c0-0.7,0.1-1.4,0.3-1.9
			c0.2-0.5,0.5-1,0.9-1.2c0.4-0.3,0.9-0.4,1.4-0.4s1,0.1,1.4,0.4s0.7,0.7,0.9,1.2c0.2,0.5,0.3,1.2,0.3,1.9c0,0.7-0.1,1.4-0.3,1.9
			c-0.2,0.5-0.5,1-0.9,1.2C380.1,369.9,379.6,370.1,379.1,370.1z M377.2,366.5c0,0.5,0,0.9,0.1,1.2c0.1,0.4,0.2,0.7,0.4,0.9l1.9-4.8
			c-0.2-0.1-0.4-0.2-0.7-0.2c-0.4,0-0.7,0.1-0.9,0.3c-0.3,0.2-0.5,0.6-0.6,1C377.3,365.4,377.2,365.9,377.2,366.5z M379.1,369.3
			c0.4,0,0.7-0.1,0.9-0.3c0.3-0.2,0.5-0.6,0.6-1c0.2-0.4,0.2-0.9,0.2-1.5c0-0.5-0.1-0.9-0.2-1.2c-0.1-0.4-0.2-0.7-0.4-0.9l-1.9,4.8
			C378.6,369.3,378.8,369.3,379.1,369.3z"/>
		<path class="st2" d="M596.1,370v-0.8h1.8V364l-1.7,0.3v-0.6l2-0.7h0.6v6.2h1.9v0.8L596.1,370L596.1,370z M604.4,370.1
			c-0.5,0-1-0.1-1.4-0.4s-0.7-0.7-0.9-1.2s-0.3-1.2-0.3-1.9c0-0.7,0.1-1.4,0.3-1.9s0.5-1,0.9-1.2c0.4-0.3,0.9-0.4,1.4-0.4
			s1,0.1,1.4,0.4s0.7,0.7,0.9,1.2s0.3,1.2,0.3,1.9c0,0.7-0.1,1.4-0.3,1.9s-0.5,1-0.9,1.2C605.4,369.9,605,370.1,604.4,370.1z
			 M602.6,366.5c0,0.5,0,0.9,0.1,1.2c0.1,0.4,0.2,0.7,0.4,0.9l1.9-4.8c-0.2-0.1-0.4-0.2-0.7-0.2c-0.4,0-0.7,0.1-0.9,0.3
			c-0.3,0.2-0.5,0.6-0.6,1C602.7,365.4,602.6,365.9,602.6,366.5z M604.4,369.3c0.4,0,0.7-0.1,0.9-0.3c0.3-0.2,0.5-0.6,0.6-1
			c0.2-0.4,0.2-0.9,0.2-1.5c0-0.5,0-0.9-0.2-1.2c-0.1-0.4-0.2-0.7-0.4-0.9l-2,4.8C604,369.3,604.2,369.3,604.4,369.3z M610.4,370.1
			c-0.5,0-1-0.1-1.4-0.4s-0.7-0.7-0.9-1.2s-0.3-1.2-0.3-1.9c0-0.7,0.1-1.4,0.3-1.9s0.5-1,0.9-1.2c0.4-0.3,0.9-0.4,1.4-0.4
			s1,0.1,1.4,0.4s0.7,0.7,0.9,1.2s0.3,1.2,0.3,1.9c0,0.7-0.1,1.4-0.3,1.9s-0.5,1-0.9,1.2C611.4,369.9,611,370.1,610.4,370.1z
			 M608.6,366.5c0,0.5,0,0.9,0.1,1.2c0.1,0.4,0.2,0.7,0.4,0.9l1.9-4.8c-0.2-0.1-0.4-0.2-0.7-0.2c-0.4,0-0.7,0.1-0.9,0.3
			c-0.3,0.2-0.5,0.6-0.6,1C608.7,365.4,608.6,365.9,608.6,366.5z M610.4,369.3c0.4,0,0.7-0.1,0.9-0.3c0.3-0.2,0.5-0.6,0.6-1
			c0.2-0.4,0.2-0.9,0.2-1.5c0-0.5,0-0.9-0.1-1.2c-0.1-0.4-0.2-0.7-0.4-0.9l-2,4.8C610,369.3,610.2,369.3,610.4,369.3z"/>
		<path class="st2" d="M313.7,166.7c-0.5,0-1-0.1-1.4-0.4c-0.4-0.3-0.7-0.7-0.9-1.2c-0.2-0.5-0.3-1.2-0.3-1.9s0.1-1.4,0.3-1.9
			c0.2-0.5,0.5-1,0.9-1.2c0.4-0.3,0.9-0.4,1.4-0.4s1,0.1,1.4,0.4c0.4,0.3,0.7,0.7,0.9,1.2c0.2,0.5,0.3,1.2,0.3,1.9s-0.1,1.4-0.3,1.9
			c-0.2,0.5-0.5,1-0.9,1.2S314.2,166.7,313.7,166.7z M311.8,163.1c0,0.5,0,0.9,0.1,1.2c0.1,0.4,0.2,0.7,0.4,0.9l1.9-4.8
			c-0.2-0.1-0.4-0.2-0.7-0.2c-0.4,0-0.7,0.1-0.9,0.3c-0.3,0.2-0.5,0.6-0.6,1C311.9,162,311.8,162.5,311.8,163.1z M313.7,165.9
			c0.4,0,0.7-0.1,0.9-0.3c0.3-0.2,0.5-0.6,0.6-1c0.2-0.4,0.2-0.9,0.2-1.5c0-0.5-0.1-0.9-0.2-1.2c-0.1-0.4-0.2-0.7-0.4-0.9l-1.9,4.8
			C313.2,165.9,313.4,165.9,313.7,165.9z M319.7,166.6c-0.2,0-0.4-0.1-0.5-0.2s-0.2-0.3-0.2-0.5s0.1-0.4,0.2-0.5s0.3-0.2,0.5-0.2
			s0.4,0.1,0.5,0.2c0.1,0.1,0.2,0.3,0.2,0.5s-0.1,0.4-0.2,0.5C320,166.5,319.9,166.6,319.7,166.6z M325.6,166.7
			c-0.5,0-1-0.1-1.4-0.4c-0.4-0.3-0.7-0.7-0.9-1.2c-0.2-0.5-0.3-1.2-0.3-1.9s0.1-1.4,0.3-1.9c0.2-0.5,0.5-1,0.9-1.2
			c0.4-0.3,0.9-0.4,1.4-0.4s1,0.1,1.4,0.4c0.4,0.3,0.7,0.7,0.9,1.2c0.2,0.5,0.3,1.2,0.3,1.9s-0.1,1.4-0.3,1.9
			c-0.2,0.5-0.5,1-0.9,1.2S326.2,166.7,325.6,166.7z M323.8,163.1c0,0.5,0,0.9,0.1,1.2c0.1,0.4,0.2,0.7,0.4,0.9l1.9-4.8
			c-0.2-0.1-0.4-0.2-0.7-0.2c-0.4,0-0.7,0.1-0.9,0.3c-0.3,0.2-0.5,0.6-0.6,1C323.9,162,323.8,162.5,323.8,163.1z M325.6,165.9
			c0.4,0,0.7-0.1,0.9-0.3c0.3-0.2,0.5-0.6,0.6-1c0.2-0.4,0.2-0.9,0.2-1.5c0-0.5,0-0.9-0.1-1.2c-0.1-0.4-0.2-0.7-0.4-0.9l-2,4.8
			C325.2,165.9,325.4,165.9,325.6,165.9z M329.3,166.6v-0.8h1.8v-5.2l-1.7,0.3v-0.6l2-0.7h0.6v6.2h1.9v0.8H329.3z M338.5,166.6V165
			h-3.4v-0.7l3.2-4.7h1v4.6h1v0.8h-1v1.6L338.5,166.6L338.5,166.6z M336.1,164.2h2.4v-3.6L336.1,164.2z"/>
		<path class="st2" d="M313.7,357.9c-0.5,0-1-0.1-1.4-0.4s-0.7-0.7-0.9-1.2c-0.2-0.5-0.3-1.2-0.3-1.9c0-0.7,0.1-1.4,0.3-1.9
			c0.2-0.5,0.5-1,0.9-1.2c0.4-0.3,0.9-0.4,1.4-0.4s1,0.1,1.4,0.4s0.7,0.7,0.9,1.2c0.2,0.5,0.3,1.2,0.3,1.9c0,0.7-0.1,1.4-0.3,1.9
			c-0.2,0.5-0.5,1-0.9,1.2C314.7,357.8,314.3,357.9,313.7,357.9z M311.9,354.3c0,0.5,0,0.9,0.1,1.2c0.1,0.4,0.2,0.7,0.4,0.9l1.9-4.8
			c-0.2-0.1-0.4-0.2-0.7-0.2c-0.4,0-0.7,0.1-0.9,0.4c-0.3,0.2-0.5,0.6-0.6,1C312,353.2,311.9,353.7,311.9,354.3z M313.7,357.2
			c0.4,0,0.7-0.1,0.9-0.3c0.3-0.2,0.5-0.6,0.6-1c0.2-0.4,0.2-0.9,0.2-1.5c0-0.5-0.1-0.9-0.2-1.2c-0.1-0.4-0.2-0.7-0.4-0.9l-1.9,4.8
			C313.3,357.1,313.5,357.2,313.7,357.2z M319.7,357.8c-0.2,0-0.4-0.1-0.5-0.2s-0.2-0.3-0.2-0.5s0.1-0.4,0.2-0.5s0.3-0.2,0.5-0.2
			s0.4,0.1,0.5,0.2s0.2,0.3,0.2,0.5s-0.1,0.4-0.2,0.5C320.1,357.8,319.9,357.8,319.7,357.8z M325.7,357.9c-0.5,0-1-0.1-1.4-0.4
			s-0.7-0.7-0.9-1.2c-0.2-0.5-0.3-1.2-0.3-1.9c0-0.7,0.1-1.4,0.3-1.9c0.2-0.5,0.5-1,0.9-1.2c0.4-0.3,0.9-0.4,1.4-0.4s1,0.1,1.4,0.4
			s0.7,0.7,0.9,1.2c0.2,0.5,0.3,1.2,0.3,1.9c0,0.7-0.1,1.4-0.3,1.9c-0.2,0.5-0.5,1-0.9,1.2C326.7,357.8,326.3,357.9,325.7,357.9z
			 M323.9,354.3c0,0.5,0,0.9,0.1,1.2c0.1,0.4,0.2,0.7,0.4,0.9l1.9-4.8c-0.2-0.1-0.4-0.2-0.7-0.2c-0.4,0-0.7,0.1-0.9,0.4
			c-0.3,0.2-0.5,0.6-0.6,1C324,353.2,323.9,353.7,323.9,354.3z M325.7,357.2c0.4,0,0.7-0.1,0.9-0.3c0.3-0.2,0.5-0.6,0.6-1
			c0.2-0.4,0.2-0.9,0.2-1.5c0-0.5,0-0.9-0.1-1.2c-0.1-0.4-0.2-0.7-0.4-0.9l-2,4.8C325.3,357.1,325.5,357.2,325.7,357.2z
			 M331.7,357.9c-0.5,0-1-0.1-1.4-0.4s-0.7-0.7-0.9-1.2c-0.2-0.5-0.3-1.2-0.3-1.9c0-0.7,0.1-1.4,0.3-1.9c0.2-0.5,0.5-1,0.9-1.2
			c0.4-0.3,0.9-0.4,1.4-0.4s1,0.1,1.4,0.4s0.7,0.7,0.9,1.2c0.2,0.5,0.3,1.2,0.3,1.9c0,0.7-0.1,1.4-0.3,1.9c-0.2,0.5-0.5,1-0.9,1.2
			C332.7,357.8,332.3,357.9,331.7,357.9z M329.9,354.3c0,0.5,0,0.9,0.1,1.2c0.1,0.4,0.2,0.7,0.4,0.9l1.9-4.8
			c-0.2-0.1-0.4-0.2-0.7-0.2c-0.4,0-0.7,0.1-0.9,0.4c-0.3,0.2-0.5,0.6-0.6,1C330,353.2,329.9,353.7,329.9,354.3z M331.7,357.2
			c0.4,0,0.7-0.1,0.9-0.3c0.3-0.2,0.5-0.6,0.6-1c0.2-0.4,0.2-0.9,0.2-1.5c0-0.5,0-0.9-0.1-1.2c-0.1-0.4-0.2-0.7-0.4-0.9l-2,4.8
			C331.3,357.1,331.5,357.2,331.7,357.2z M337.7,357.9c-0.5,0-1-0.1-1.4-0.4s-0.7-0.7-0.9-1.2c-0.2-0.5-0.3-1.2-0.3-1.9
			c0-0.7,0.1-1.4,0.3-1.9c0.2-0.5,0.5-1,0.9-1.2c0.4-0.3,0.9-0.4,1.4-0.4s1,0.1,1.4,0.4s0.7,0.7,0.9,1.2c0.2,0.5,0.3,1.2,0.3,1.9
			c0,0.7-0.1,1.4-0.3,1.9c-0.2,0.5-0.5,1-0.9,1.2C338.7,357.8,338.3,357.9,337.7,357.9z M335.9,354.3c0,0.5,0,0.9,0.1,1.2
			c0.1,0.4,0.2,0.7,0.4,0.9l1.9-4.8c-0.2-0.1-0.4-0.2-0.7-0.2c-0.4,0-0.7,0.1-0.9,0.4c-0.3,0.2-0.5,0.6-0.6,1
			C336,353.2,335.9,353.7,335.9,354.3z M337.7,357.2c0.4,0,0.7-0.1,0.9-0.3c0.3-0.2,0.5-0.6,0.6-1c0.2-0.4,0.2-0.9,0.2-1.5
			c0-0.5,0-0.9-0.1-1.2c-0.1-0.4-0.2-0.7-0.4-0.9l-2,4.8C337.2,357.1,337.5,357.2,337.7,357.2z"/>
	</g>
</g>
</svg>
